<svg width="870" height="576" viewBox="0 0 870 576" fill="none" xmlns="http://www.w3.org/2000/svg">
<path d="M857.594 406.304C849.219 407.855 840.845 409.25 832.626 411.111C808.899 416.384 785.171 421.036 760.979 423.983C741.439 426.464 721.898 427.55 702.203 426.154C684.834 424.913 668.706 419.175 654.749 408.94C650.096 405.529 646.995 400.101 643.428 395.448C641.722 393.277 640.326 390.641 638.31 388.78C622.337 373.582 608.38 356.679 594.267 339.776C585.738 329.385 577.209 318.995 568.679 308.76C567.904 307.829 566.818 307.054 565.112 306.589C565.888 307.985 566.508 309.535 567.439 310.776C580.93 329.075 594.578 347.219 607.914 365.674C616.599 377.615 625.128 389.555 633.658 401.652C637.69 407.234 640.791 413.127 638.93 420.261C640.791 424.448 646.529 426.619 644.048 433.598C640.791 434.993 637.07 437.164 632.882 438.405C614.583 443.988 596.283 449.571 577.984 454.843C539.679 465.544 501.374 476.244 463.07 486.634C422.439 497.645 381.807 508.655 341.176 519.356C307.524 528.195 273.717 536.879 239.909 545.254C224.866 548.976 209.668 551.767 194.471 554.558C190.439 555.334 186.251 555.179 182.064 555.334C175.086 555.644 170.743 551.922 168.572 545.719C162.679 528.505 154.77 511.757 152.444 493.303C151.979 489.271 150.583 485.239 149.342 481.362C145.62 470.196 141.588 467.405 129.802 468.335C122.979 468.955 116 470.351 109.332 472.212C91.9626 477.019 74.7487 482.602 57.2246 487.255C44.0428 490.821 30.5508 493.303 17.2139 496.404C17.2139 495.939 17.2139 495.319 17.2139 494.853C28.5347 492.062 39.8556 489.581 51.0214 486.479C70.8716 481.051 90.7219 475.158 110.727 469.731C116.62 468.025 122.824 466.939 128.872 466.164C141.123 464.458 148.102 468.8 151.668 480.741C153.684 487.41 154.77 494.388 156.476 501.056C157.561 505.864 158.802 510.516 161.283 515.013C161.128 513.153 160.973 511.292 160.663 509.431C157.406 486.944 154.15 464.458 151.048 441.972C147.481 415.298 143.914 388.78 140.503 362.107C140.037 359.005 140.037 355.904 140.193 352.802C140.813 344.428 144.69 337.915 152.599 334.658C158.492 332.177 164.695 330.161 170.898 328.3C174.62 327.059 174.775 327.214 177.567 323.492C174.775 321.942 172.139 322.872 169.348 323.027C164.23 323.337 159.112 323.958 153.84 323.802C143.139 323.492 137.246 319.46 134.61 309.225C130.578 293.717 127.321 278.055 123.909 262.392C116.62 228.895 109.176 195.398 102.198 161.746C96.615 134.918 91.4973 108.089 86.2246 81.2608C84.8289 74.4374 83.8984 67.4589 83.123 60.6354C82.3476 54.7425 84.5187 51.0206 90.1016 49.1597C95.2192 47.4538 100.647 46.2132 105.92 45.5929C135.85 42.1812 165.936 39.0796 196.021 35.823C218.353 33.4968 240.684 30.8605 263.016 28.6894C286.433 26.3632 309.85 24.1921 333.112 21.866C351.102 20.1601 369.091 18.1441 387.08 16.2832C397.936 15.1976 408.636 14.1121 419.492 13.3367C435 12.4062 450.508 11.6308 465.861 11.0105C469.428 10.8554 473.15 11.1656 476.717 11.7859C486.332 13.1816 492.845 18.6093 495.636 27.914C497.497 34.1171 498.583 40.4753 499.513 46.8335C502.46 67.4589 505.406 88.2393 508.043 109.02C510.524 128.249 512.54 147.479 514.711 166.709C517.193 187.799 519.519 208.735 522 229.825C522.31 232.151 522.465 234.478 522.62 236.804C523.086 248.745 522.62 250.606 517.037 260.531C517.813 261.151 518.433 262.082 519.364 262.392C535.957 268.595 547.898 281.001 558.909 293.872C575.037 312.637 590.545 332.022 606.674 350.941C615.668 361.486 625.438 371.566 634.743 381.957C636.139 383.352 637.69 384.593 639.396 385.989C641.257 380.871 641.257 366.759 639.396 358.075C638.62 358.075 637.535 357.92 636.759 358.075C629.316 359.781 624.043 356.059 620.476 350.321C615.048 341.326 613.342 331.556 615.979 321.321C617.374 315.894 620.476 312.637 626.214 312.482C631.021 312.327 635.984 312.482 641.257 312.482C642.032 314.808 642.807 316.979 643.273 319.15C646.064 329.385 651.802 337.294 661.107 342.567C673.358 349.39 686.85 350.941 700.652 351.717C698.947 351.406 697.396 350.941 695.69 350.631C693.674 350.166 691.658 349.7 689.642 349.08C682.353 346.289 674.909 344.118 668.086 340.551C658.316 335.123 652.112 326.904 652.733 314.808C653.043 308.915 655.059 304.418 659.556 300.696C667.155 294.183 675.995 290.926 685.765 290.151C704.529 288.6 722.984 289.685 740.353 297.749C745.936 300.231 751.053 303.953 755.706 307.985C762.219 313.412 764.856 321.011 764.235 329.54C762.84 347.064 761.599 364.588 759.583 381.957C758.807 388.315 756.636 394.518 754.31 400.566C751.519 408.165 745.936 413.593 738.337 416.539C734.77 417.935 731.048 419.175 727.171 419.796C703.289 423.983 680.957 420.261 660.332 407.079C657.54 405.218 654.594 403.513 651.802 401.807C651.647 401.807 651.337 401.962 650.562 402.272C653.198 406.304 656.765 409.095 660.797 411.266C676.15 419.796 692.588 424.913 710.112 425.689C731.668 426.619 753.07 424.603 774.16 420.726C802.075 415.609 829.834 409.716 857.749 404.133C857.594 404.288 857.594 405.218 857.594 406.304ZM436.241 33.962C436.241 33.6519 436.241 33.4968 436.241 33.1867C416.701 35.2027 397.16 37.0636 377.775 39.0796C356.219 41.4058 334.663 43.887 313.107 46.2132C292.791 48.5394 272.631 50.7105 252.315 53.1917C233.086 55.5179 213.856 57.844 194.626 60.1702C177.412 62.3413 160.353 64.2022 143.139 66.6835C136.471 67.6139 129.957 69.4749 123.599 71.4909C117.086 73.662 113.519 78.6245 113.984 85.758C114.294 89.635 114.604 93.5119 115.38 97.2338C119.877 117.859 124.529 138.64 129.182 159.265C137.091 194.778 145.155 230.291 153.219 265.803C154.46 271.076 155.856 276.349 157.561 281.466C160.973 291.081 165.936 294.803 176.016 294.803C182.995 294.803 189.973 294.028 196.797 293.097C232 287.824 267.203 282.397 302.406 277.124C323.032 274.023 343.813 271.076 364.439 268.285C382.118 265.958 399.797 263.942 417.476 261.771C439.808 258.98 462.139 256.809 484.626 256.344C494.086 256.189 500.134 250.761 500.754 241.301C501.064 235.873 501.064 230.446 500.289 225.018C497.187 202.066 493.931 178.96 490.364 156.008C487.262 135.538 483.85 115.223 480.283 94.9076C477.647 79.71 474.856 64.3573 469.893 49.6249C466.481 40.0101 459.658 35.0476 449.733 33.962C445.545 33.4968 440.893 33.962 436.241 33.962ZM186.562 415.764C189.353 416.229 191.834 417.004 194.316 416.849C199.123 416.539 204.086 415.919 208.893 414.988C232.31 410.956 255.572 406.769 278.989 402.427C312.797 396.224 346.449 389.866 380.102 383.507C419.182 376.219 458.262 369.085 497.187 361.486C509.283 359.16 521.535 356.524 533.321 352.647C548.053 347.84 550.38 341.481 543.866 327.369C537.663 313.878 528.824 302.092 519.519 290.771C515.642 285.964 510.679 283.637 504.631 284.103C497.963 284.568 491.294 285.033 484.626 286.119C470.668 288.135 456.556 290.616 442.599 292.787C407.396 298.37 372.193 303.642 337.144 309.38C302.251 315.118 267.358 321.011 232.62 327.059C217.578 329.695 202.845 332.952 187.957 336.209C184.856 336.829 181.909 338.535 178.342 340.086C180.048 363.347 181.909 386.299 184.701 408.94C184.545 411.111 185.631 413.282 186.562 415.764ZM173.38 330.316C166.246 331.091 159.578 333.417 153.064 336.674C145.62 340.396 142.053 346.599 142.364 354.818C142.519 358.385 142.364 362.107 142.829 365.674C145.93 388.935 149.032 412.197 152.289 435.459C155.08 455.929 158.182 476.399 161.128 496.714C162.524 506.639 164.23 516.564 165.936 526.489C167.487 536.104 170.433 538.585 179.893 537.965C185.011 537.655 190.128 536.724 195.091 535.484C219.283 529.901 243.476 524.628 267.513 518.58C324.118 504.468 380.722 490.046 437.171 475.469C480.128 464.458 523.241 453.448 566.198 442.127C584.497 437.319 602.487 432.047 620.631 426.929C623.888 425.999 626.989 424.293 631.176 422.587C626.834 419.641 623.267 419.796 619.701 420.106C613.808 420.571 607.759 421.036 602.021 422.277C585.893 425.689 569.765 429.41 553.636 433.287C539.524 436.699 525.567 440.421 511.61 443.988C506.337 445.228 500.909 445.694 495.481 443.833C495.171 443.678 494.551 443.988 494.086 444.143C493.775 445.383 493.62 446.624 493.155 448.64C488.658 450.191 484.005 452.362 479.043 453.603C439.652 463.528 400.417 473.142 361.027 482.912C356.995 483.843 352.963 484.618 348.775 484.928C341.797 485.394 339.471 483.843 336.679 477.64C335.439 474.848 334.353 471.902 333.422 468.955C329.545 457.169 325.824 445.384 322.102 433.598C317.914 420.261 319.155 417.469 332.957 413.748C360.717 406.459 388.476 399.48 416.235 392.502C428.021 389.556 439.807 386.919 452.059 384.128C449.733 379.01 445.545 378.235 441.513 378.545C435.931 378.855 430.192 379.631 424.61 380.716C393.749 387.074 363.043 393.743 332.182 400.101C290.775 408.63 249.214 417.159 207.807 425.534C201.449 426.774 194.936 427.394 188.578 427.394C181.289 427.394 178.652 424.603 176.791 417.47C176.326 415.454 175.706 413.437 175.551 411.421C173.535 394.828 171.519 378.08 169.813 361.486C169.037 352.957 168.262 344.273 175.241 337.915C175.086 335.743 175.086 334.193 174.775 332.797C174.62 332.022 174.155 331.401 173.38 330.316ZM476.561 261.306C476.406 260.531 476.251 259.91 476.096 259.135C474.39 259.135 472.529 259.135 470.824 259.135C440.893 260.531 411.118 264.253 381.497 268.285C353.893 272.006 326.289 276.039 298.684 280.071C268.754 284.413 238.979 289.22 209.048 293.562C199.123 294.958 189.043 296.199 178.963 296.974C165.936 298.06 159.267 293.562 155.08 281.001C153.219 275.573 151.824 270.146 150.583 264.563C138.176 210.441 125.925 156.318 113.829 102.196C112.588 96.4584 111.813 90.4104 111.658 84.5174C111.348 75.9881 114.139 72.4213 122.048 69.3198C125.15 68.0792 128.406 67.1487 131.663 66.5284C148.412 63.8921 165.316 61.2557 182.219 59.0847C209.668 55.6729 237.118 52.4163 264.412 49.3147C286.278 46.8335 307.989 44.3523 329.856 41.871C345.209 40.1652 360.561 38.3042 376.07 36.7534C395.144 34.7374 414.064 32.7214 433.139 31.3257C440.273 30.8605 447.562 31.6359 454.695 32.5663C461.829 33.4968 467.102 37.6839 470.358 44.0421C471.909 47.2987 473.46 50.5554 474.39 54.1222C476.717 63.1167 478.888 72.1112 480.594 81.2608C484.626 103.902 488.658 126.544 492.07 149.185C496.257 176.479 499.824 203.927 503.545 231.221C504.631 239.595 503.701 247.814 497.652 254.483C497.342 254.793 497.497 255.413 497.342 256.654C501.685 257.429 506.182 258.205 510.214 258.825C517.968 253.707 520.449 250.451 519.984 242.076C519.519 230.756 518.123 219.435 517.037 208.114C515.332 191.211 513.626 174.152 511.61 157.249C507.733 125.768 503.856 94.2873 499.668 62.8065C498.273 51.796 495.947 40.9405 493.775 30.0851C491.604 19.6949 484.471 14.8875 474.08 13.1816C461.364 11.0105 448.802 13.1816 436.241 13.957C420.733 14.7324 405.38 16.7484 390.027 18.1441C372.037 19.85 354.048 21.4007 336.059 23.2617C318.845 24.9675 301.631 26.9835 284.572 28.6894C261.155 31.0156 237.738 33.1867 214.476 35.5128C189.818 37.9941 165.16 40.4753 140.503 43.2667C126.08 44.8175 111.813 46.9886 97.5455 49.1597C93.5134 49.78 89.4813 50.8655 86.0695 54.8976C86.0695 57.844 85.6043 61.4108 86.2246 64.9776C90.2567 87.619 94.1337 110.26 98.7861 132.747C109.797 185.318 121.118 237.734 132.283 290.306C133.524 296.354 135.23 302.402 137.246 308.14C140.193 316.669 146.396 321.166 155.545 320.856C164.54 320.546 173.69 320.391 182.529 318.84C220.679 312.172 258.829 305.348 296.824 298.215C330.011 292.012 363.198 285.188 396.385 278.52C420.422 273.712 444.46 268.595 468.342 263.477C470.824 263.167 473.615 262.237 476.561 261.306ZM177.877 336.209C180.358 335.588 182.064 335.278 183.77 334.813C191.989 332.797 200.209 330.626 208.583 329.075C227.348 325.663 246.112 322.407 265.032 319.305C297.289 313.878 329.545 308.295 361.957 303.022C397.626 297.284 433.294 291.701 468.963 286.274C480.438 284.568 492.07 283.637 503.545 282.397C511.455 281.621 517.658 284.413 522.31 290.926C528.513 299.455 534.872 307.985 540.61 316.824C543.711 321.786 546.193 327.369 548.053 332.952C551.31 342.722 548.364 348.77 539.214 353.112C537.353 354.043 535.492 354.818 533.476 355.438C526.342 357.454 519.053 359.781 511.765 361.331C491.294 365.674 470.824 369.55 450.198 373.582C448.337 373.893 446.476 374.668 444.15 375.443C448.957 378.235 453.144 380.561 458.107 383.507C464.155 383.197 468.497 387.229 471.754 392.967C472.995 395.293 474.235 397.464 475.321 399.791C480.439 410.181 485.401 420.726 490.364 431.271C496.722 444.608 498.118 445.228 512.54 441.817C537.353 435.769 562.166 429.566 586.979 423.673C602.332 420.106 617.685 416.384 633.658 419.175C634.278 419.33 635.053 418.71 635.674 418.555C638.155 415.298 636.759 412.352 635.209 409.716C631.797 404.133 628.54 398.705 624.663 393.432C610.551 374.048 596.438 354.663 582.016 335.278C570.85 320.391 559.685 305.658 548.209 290.926C539.989 280.381 529.289 274.178 515.642 274.333C506.647 274.333 497.497 274.023 488.503 275.108C469.738 277.279 451.128 279.76 432.519 282.707C389.251 289.84 345.984 297.284 302.872 304.883C278.524 309.07 254.021 313.567 229.829 318.22C213.545 321.321 197.572 325.043 181.289 328.455C180.048 328.765 178.963 329.385 177.257 330.006C177.567 331.867 177.722 333.727 177.877 336.209ZM342.417 481.672C348.62 483.223 350.791 483.533 359.786 481.206C400.882 470.971 441.824 460.581 482.92 450.191C485.556 449.571 488.192 448.33 490.519 447.555C488.813 437.785 462.914 394.208 454.385 386.609C449.888 387.539 445.08 388.315 440.428 389.4C410.652 396.689 380.722 403.978 350.947 411.266C343.968 412.972 336.989 415.143 330.166 417.314C326.754 418.4 323.187 419.796 322.722 424.293C325.668 440.886 337.455 475.158 342.417 481.672ZM759.428 339C752.294 347.064 750.433 348.77 745.471 350.166C733.529 353.577 721.588 356.834 708.872 355.283C698.326 354.043 687.936 352.647 677.545 350.631C671.807 349.39 666.225 347.064 660.952 344.428C650.406 339.31 643.738 330.781 640.791 319.305C640.326 317.599 639.706 315.894 639.241 314.498C634.743 312.327 630.711 314.188 626.679 314.343C621.406 314.498 618.46 317.599 617.684 322.252C615.824 332.642 617.219 342.412 624.043 350.786C625.904 352.957 628.85 354.818 631.642 355.593C634.743 356.524 637.07 355.128 637.225 350.631C635.209 349.856 633.193 348.925 631.176 347.995C625.128 345.203 620.321 336.829 621.251 330.161C622.337 322.407 628.54 319.305 638.465 322.252C638.931 323.958 640.016 325.974 640.326 328.145C640.947 333.727 641.412 339.465 641.722 345.048C642.342 357.765 642.807 370.326 643.273 383.042C643.428 388.005 644.979 392.037 649.321 394.983C655.369 399.015 661.107 403.357 667.31 407.079C687.936 419.175 709.957 419.796 732.599 415.143C742.059 413.127 748.572 407.079 752.449 398.24C753.845 395.138 754.931 391.882 755.551 388.625C758.963 372.962 759.893 356.989 760.203 340.861C760.203 340.551 759.893 340.086 759.428 339ZM169.813 540.291C171.984 550.526 176.016 553.938 185.321 553.163C190.128 552.852 195.091 552.387 199.898 551.302C234.326 543.238 268.909 535.639 303.027 526.799C353.273 513.928 403.364 500.281 453.455 486.634C501.529 473.608 549.449 460.271 597.524 446.934C609.775 443.523 621.717 439.646 633.813 435.769C636.914 434.838 639.551 432.977 642.342 431.427C641.412 426.929 639.861 424.293 637.225 423.673C627.61 427.084 618.925 430.651 610.086 433.132C587.754 439.335 565.267 445.228 542.781 451.121C468.342 470.351 393.749 489.426 319.31 508.5C286.588 516.874 253.711 525.094 220.834 532.847C204.241 536.569 187.647 541.067 169.813 540.291ZM661.882 332.022C668.706 338.535 676.15 342.412 684.524 344.428C692.743 346.444 701.118 347.995 709.647 348.925C716.781 349.7 724.07 349.7 731.203 349.7C740.818 349.856 747.952 340.551 743.765 329.23C741.439 322.717 737.096 317.444 730.583 314.653C715.385 308.45 699.722 306.589 683.749 311.086C677.545 312.792 672.583 316.359 668.861 321.476C666.69 324.733 664.674 328.145 661.882 332.022ZM744.695 347.219C751.519 345.513 755.241 341.792 756.636 336.209C758.807 327.679 758.032 319.615 750.743 313.722C747.332 310.931 743.765 308.295 740.043 306.279C725.465 298.835 709.802 296.199 693.519 297.749C685.61 298.525 678.321 301.006 672.118 305.813C666.535 310.156 662.813 315.583 663.743 323.492C665.604 322.407 666.69 320.701 667.931 319.15C673.668 311.706 681.733 308.295 690.727 307.519C702.048 306.434 713.369 306.899 724.535 310.001C742.834 314.808 750.433 328.3 744.695 347.219ZM356.529 392.347C356.374 391.727 356.219 391.106 355.909 390.641C348.155 392.192 340.246 393.588 332.492 395.138C300.235 401.031 268.134 406.769 235.877 412.507C222.385 414.833 209.048 417.159 195.556 419.33C187.027 420.726 182.995 417.47 181.754 408.94C181.599 407.855 181.599 406.924 181.444 405.839C179.893 388.315 178.497 370.946 176.947 353.422C176.636 350.476 176.791 347.374 173.535 343.808C172.914 347.684 171.984 350.321 172.139 352.957C172.294 359.936 172.759 366.914 173.535 373.738C174.93 387.384 176.481 400.876 178.497 414.368C179.738 423.207 182.529 425.534 191.524 424.913C201.294 424.138 211.064 422.897 220.524 421.036C247.818 415.764 275.112 410.026 302.406 404.288C320.396 400.566 338.385 396.379 356.529 392.347ZM658.781 326.904C659.556 324.578 660.176 323.492 660.332 322.252C662.193 309.07 670.257 301.626 682.508 298.215C702.513 292.477 721.898 295.578 740.508 303.953C749.658 307.985 756.947 314.343 761.134 323.958C760.824 317.289 758.032 311.862 753.07 307.829C746.091 301.937 738.182 297.594 729.187 295.423C716.316 292.322 703.289 290.616 690.107 291.701C680.182 292.477 670.722 294.338 662.658 300.851C653.973 307.364 652.578 315.894 658.781 326.904ZM511.299 261.926C489.433 269.99 466.171 271.386 441.979 277.124C444.77 277.279 445.856 277.589 446.786 277.434C462.139 275.728 477.492 273.867 492.845 272.317C505.406 271.076 517.968 270.301 530.374 274.178C531.615 274.488 532.856 274.488 535.647 274.643C527.738 268.13 520.294 264.408 511.299 261.926ZM636.449 323.958C627.765 321.631 622.802 325.819 623.888 333.883C625.128 342.722 628.695 345.979 638 346.754C639.861 339.776 639.396 331.556 636.449 323.958ZM502.925 260.841C495.636 259.755 490.519 258.98 484.781 261.151C476.562 264.098 468.032 265.958 459.503 268.13C452.679 269.835 445.856 271.541 438.877 273.092C448.337 274.023 495.326 264.873 502.925 260.841ZM481.059 421.191C478.733 409.716 473.305 400.101 467.567 390.641C466.947 389.555 466.016 388.47 464.93 387.85C463.845 387.229 462.449 387.229 459.658 386.764C467.257 399.17 474.08 410.181 481.059 421.191ZM191.059 322.252C205.791 321.011 220.059 317.444 235.722 314.188C228.588 313.412 201.449 318.375 191.059 322.252Z" fill="black"/>
<g style="mix-blend-mode:multiply" opacity="0.8">
<path d="M119.002 287.619C121.328 294.287 124.12 301.266 129.858 305.298C134.355 308.399 140.093 309.174 145.676 309.795C261.366 322.821 377.521 296.613 491.04 270.405C502.515 242.491 498.483 210.7 490.419 181.701C482.355 152.701 470.569 124.477 466.847 94.5468C464.521 75.6273 464.521 54.3816 450.874 41.2C438.467 29.259 419.082 28.6387 401.868 29.1039C327.895 31.12 253.922 38.2535 180.879 50.5047C162.89 53.4512 145.056 56.7078 127.221 60.4297C116.056 62.4457 81.7828 63.8414 74.0288 71.9054C61.3122 85.087 82.4031 154.252 86.4352 172.861C94.6545 211.631 105.665 250.09 119.002 287.619Z" fill="#FF2679"/>
</g>
</svg>
