<svg width="90" height="31" viewBox="0 0 90 31" fill="none" xmlns="http://www.w3.org/2000/svg">
<path d="M0.095993 27H3.15599V14.292H13.668V11.448H3.15599V4.068H13.668V1.26H0.095993V27Z" fill="black"/>
<path d="M24.4742 0.251999L12.8102 27H16.1222L19.4702 19.116H29.5142L32.8622 27H36.1742L24.4742 0.251999ZM24.4742 7.02L28.5782 16.488H20.3702L24.4742 7.02Z" fill="black"/>
<path d="M48.3422 0.684L35.7422 30.348H38.1182L50.7542 0.684H48.3422Z" fill="black"/>
<path d="M61.1939 28.008L72.0299 1.26H68.7179L61.1939 20.952L53.6339 1.26H50.3219L61.1939 28.008Z" fill="black"/>
<path d="M84.0927 12.708L80.4207 11.088C78.0807 10.08 76.9647 8.784 76.9647 6.948C76.9647 4.752 78.5847 3.204 80.8887 3.204C82.7247 3.204 84.1287 4.212 85.2447 6.156L87.7647 4.536C86.5047 1.98 84.2007 0.647998 81.1047 0.647998C76.8207 0.647998 73.8687 3.384 73.8687 6.984C73.8687 10.116 75.5247 12.348 78.9447 13.788L82.0767 15.12C84.7407 16.272 86.0727 17.964 86.0727 20.268C86.0727 23.076 84.0207 25.056 80.9247 25.056C78.3327 25.056 76.5687 23.436 75.8127 20.304L73.0407 21.672C74.0127 25.488 76.8567 27.648 80.9247 27.648C85.8927 27.648 89.1687 24.48 89.1687 19.764C89.1687 16.524 87.4767 14.148 84.0927 12.708Z" fill="black"/>
</svg>
