<svg width="150" height="16" viewBox="0 0 150 16" fill="none" xmlns="http://www.w3.org/2000/svg">
<path d="M22.3228 0.129033L17.2475 15.1829H15.5701L11.1614 2.34411L6.73125 15.1829H5.07532L0 0.129033H1.63443L5.97856 13.0754L10.4732 0.129033H11.9571L16.3873 13.1399L20.7959 0.129033H22.3228Z" fill="white"/>
<path d="M25.2407 0.129033H26.8321V15.1829H25.2407V0.129033Z" fill="white"/>
<path d="M36.3969 8.10761L33.3216 11.2259V15.1829H31.7302V0.129033H33.3216V9.2259L42.1604 0.129033H43.9883L37.4722 6.94631L44.44 15.1829H42.5475L36.3969 8.10761Z" fill="white"/>
<path d="M63.422 15.4195L61.336 13.269C60.06 14.631 58.3825 15.312 56.3037 15.312C55.3287 15.312 54.4542 15.1543 53.68 14.8389C52.9201 14.5091 52.3251 14.0575 51.895 13.484C51.4649 12.8962 51.2498 12.2295 51.2498 11.484C51.2498 10.5808 51.5366 9.77071 52.1101 9.05385C52.6836 8.337 53.6585 7.58431 55.0348 6.79577C54.318 6.05024 53.8233 5.41941 53.5509 4.90328C53.2785 4.3728 53.1423 3.81366 53.1423 3.22584C53.1423 2.26526 53.4864 1.49105 54.1746 0.903235C54.8628 0.315415 55.7875 0.0215053 56.9488 0.0215053C58.0241 0.0215053 58.8772 0.286741 59.508 0.817212C60.1388 1.34768 60.4542 2.07887 60.4542 3.01078C60.4542 3.75631 60.2033 4.43015 59.7015 5.03231C59.1997 5.62013 58.3324 6.27246 57.0994 6.98932L61.2284 11.2474C61.6872 10.4302 62.0241 9.46246 62.2392 8.34417L63.4865 8.73127C63.2141 10.079 62.7697 11.2331 62.1532 12.1937L64.3037 14.4087L63.422 15.4195ZM56.9488 1.1613C56.2033 1.1613 55.6155 1.34768 55.1854 1.72045C54.7696 2.09321 54.5617 2.58784 54.5617 3.20433C54.5617 3.64878 54.6764 4.07173 54.9058 4.47316C55.1352 4.8746 55.5868 5.41941 56.2606 6.10759C57.3503 5.47676 58.103 4.93912 58.5187 4.49467C58.9345 4.05022 59.1424 3.56276 59.1424 3.03229C59.1424 2.45881 58.9488 2.00719 58.5617 1.67744C58.1746 1.33335 57.637 1.1613 56.9488 1.1613ZM56.3897 14.0432C58.0528 14.0432 59.4005 13.4768 60.4327 12.3442L55.8951 7.6775C54.7051 8.35134 53.8807 8.96066 53.4219 9.50547C52.9775 10.0503 52.7552 10.6596 52.7552 11.3334C52.7552 12.1507 53.085 12.8102 53.7445 13.312C54.4183 13.7994 55.3001 14.0432 56.3897 14.0432Z" fill="white"/>
<path d="M88.2968 0.129033V15.1829H86.7699V3.13982L80.8558 13.269H80.1031L74.1891 3.20433V15.1829H72.6622V0.129033H73.974L80.5117 11.2904L86.9849 0.129033H88.2968Z" fill="white"/>
<path d="M99.7824 15.312C98.2914 15.312 96.9365 14.9822 95.7179 14.3227C94.5136 13.6489 93.5673 12.7313 92.8791 11.57C92.2053 10.4087 91.8684 9.10404 91.8684 7.65599C91.8684 6.20795 92.2053 4.90328 92.8791 3.74197C93.5673 2.58067 94.5136 1.67027 95.7179 1.01076C96.9365 0.336921 98.2914 0 99.7824 0C101.273 0 102.614 0.329752 103.804 0.989257C105.008 1.64876 105.955 2.56633 106.643 3.74197C107.331 4.90328 107.675 6.20795 107.675 7.65599C107.675 9.10404 107.331 10.4159 106.643 11.5915C105.955 12.7528 105.008 13.6632 103.804 14.3227C102.614 14.9822 101.273 15.312 99.7824 15.312ZM99.7824 13.8926C100.972 13.8926 102.048 13.6274 103.008 13.0969C103.969 12.5521 104.722 11.8066 105.266 10.8603C105.811 9.89974 106.084 8.83163 106.084 7.65599C106.084 6.48035 105.811 5.41941 105.266 4.47316C104.722 3.51258 103.969 2.76705 103.008 2.23658C102.048 1.69177 100.972 1.41937 99.7824 1.41937C98.5924 1.41937 97.51 1.69177 96.5351 2.23658C95.5745 2.76705 94.8146 3.51258 94.2555 4.47316C93.7107 5.41941 93.4383 6.48035 93.4383 7.65599C93.4383 8.83163 93.7107 9.89974 94.2555 10.8603C94.8146 11.8066 95.5745 12.5521 96.5351 13.0969C97.51 13.6274 98.5924 13.8926 99.7824 13.8926Z" fill="white"/>
<path d="M121.522 15.1829L118.081 10.3442C117.694 10.3872 117.292 10.4087 116.877 10.4087H112.833V15.1829H111.242V0.129033H116.877C118.798 0.129033 120.303 0.587819 121.393 1.50539C122.482 2.42296 123.027 3.68462 123.027 5.29038C123.027 6.46601 122.726 7.46244 122.124 8.27965C121.536 9.08253 120.69 9.66318 119.586 10.0216L123.264 15.1829H121.522ZM116.833 9.05385C118.325 9.05385 119.464 8.7241 120.253 8.0646C121.041 7.40509 121.436 6.48035 121.436 5.29038C121.436 4.07173 121.041 3.13982 120.253 2.49465C119.464 1.83514 118.325 1.50539 116.833 1.50539H112.833V9.05385H116.833Z" fill="white"/>
<path d="M129.498 1.50539H124.208V0.129033H136.38V1.50539H131.089V15.1829H129.498V1.50539Z" fill="white"/>
<path d="M143.978 9.9786V15.1829H142.409V9.9786L136.387 0.129033H138.086L143.247 8.58073L148.409 0.129033H150L143.978 9.9786Z" fill="white"/>
</svg>
