<svg width="80" height="80" viewBox="0 0 80 80" fill="none" xmlns="http://www.w3.org/2000/svg">
<path d="M70 55C70 56.2667 69.3 57.3667 68.2334 57.9333L41.9 72.7333C41.3667 73.1333 40.7 73.3333 40 73.3333C39.3 73.3333 38.6334 73.1333 38.1 72.7333L11.7667 57.9333C11.2323 57.6525 10.7851 57.2306 10.4736 56.7134C10.1621 56.1963 9.99834 55.6037 10 55V25C10 23.7333 10.7 22.6333 11.7667 22.0667L38.1 7.26666C38.6334 6.86666 39.3 6.66666 40 6.66666C40.7 6.66666 41.3667 6.86666 41.9 7.26666L68.2334 22.0667C69.3 22.6333 70 23.7333 70 25V55ZM40 13.8333L20.1333 25L40 36.1667L59.8667 25L40 13.8333ZM16.6667 53.0333L36.6667 64.3V41.9333L16.6667 30.7V53.0333ZM63.3334 53.0333V30.7L43.3334 41.9333V64.3L63.3334 53.0333V53.0333Z" fill="url(#paint0_linear)"/>
<defs>
<linearGradient id="paint0_linear" x1="73.5" y1="20.9997" x2="7.5" y2="57.9997" gradientUnits="userSpaceOnUse">
<stop stop-color="#29C5FE"/>
<stop offset="1" stop-color="#FF21B2"/>
</linearGradient>
</defs>
</svg>
