<svg width="150" height="22" viewBox="0 0 150 22" fill="none" xmlns="http://www.w3.org/2000/svg">
<g clip-path="url(#clip0)">
<path d="M3.81866 0V12.1298C3.72943 13.2217 3.86425 14.3203 4.21484 15.3582C4.50026 15.9741 4.95672 16.4949 5.52982 16.8587C6.0613 17.2101 6.68148 17.4038 7.31851 17.4172C7.95553 17.4306 8.58333 17.2633 9.12914 16.9345C9.68601 16.6352 10.1475 16.1854 10.461 15.6364C11.0173 14.7429 10.9414 13.5207 10.9414 12.2647V0H14.7684V12.3153C14.7684 14.0601 14.7684 15.805 13.7231 17.5836C13.0634 18.6836 12.1316 19.5951 11.0173 20.2304C9.91512 20.8725 8.65978 21.2045 7.38427 21.1913C5.98714 21.2104 4.61623 20.8111 3.44777 20.045C2.27181 19.3047 1.33276 18.2428 0.741955 16.9851C0.103996 15.4391 -0.150502 13.7617 0.000173155 12.0961C0.0334446 11.8164 0.0475264 11.5348 0.0423198 11.2532V0H3.81866Z" fill="#262626"/>
<path d="M30.7504 0V20.812L27.4461 17.3644L19.6236 9.31441V20.7699H15.8389V0L19.1432 3.45603L26.974 11.5398V0H30.7504Z" fill="#262626"/>
<path d="M35.9009 0V20.8879H32.1245V0H35.9009Z" fill="#262626"/>
<path d="M37.1987 0H48.9998V3.78477H44.92V20.8879H41.1352V3.78477H37.1987V0Z" fill="#262626"/>
<path d="M60.2364 13.2087V20.8879H56.4179V13.3942L50.1465 0.185425H54.3611L58.2724 8.42931L62.1667 0.185425H66.3814L60.2364 13.2087ZM60.2364 13.2087L66.3561 0.185425L60.2364 13.2087Z" fill="#262626"/>
<path d="M81.0822 18.2917C79.548 19.4212 77.6008 20.0702 74.6084 20.0702H69.4834V1.18854H74.6084C77.6008 1.18854 79.548 1.8376 81.0822 2.97556C82.2655 3.86791 83.2234 5.02497 83.8791 6.35407C84.5349 7.68317 84.8703 9.14737 84.8585 10.6294C84.8697 12.1125 84.534 13.5777 83.8783 14.908C83.2227 16.2384 82.2652 17.3971 81.0822 18.2917V18.2917ZM74.5579 19.5898C77.4154 19.5898 79.3036 18.966 80.7871 17.9039C81.9022 17.0523 82.8008 15.9498 83.4101 14.6859C84.0193 13.4219 84.3221 12.0322 84.2937 10.6294C84.3201 9.2293 84.0164 7.84268 83.4071 6.5818C82.7979 5.32092 81.9004 4.22122 80.7871 3.37174C79.3036 2.26749 77.4154 1.68587 74.5579 1.68587H70.0229V19.5898H74.5579Z" fill="#262626"/>
<path d="M96.8615 1.18854V1.68587H87.6651V9.27227H94.948V9.76117H87.6651V19.5898H97.1059V20.0702H87.1509V1.18854H96.8615Z" fill="#262626"/>
<path d="M98.6236 16.7828C99.1967 17.7469 100.017 18.5404 100.999 19.0813C101.982 19.6222 103.091 19.8908 104.212 19.8595C106.741 19.8595 108.983 18.1736 108.983 15.4341C108.983 13.2172 107.609 12.0623 105.907 11.2194C103.024 9.89601 99.0619 9.27224 99.0619 5.58019C99.0619 2.25903 102.029 0.91034 104.12 0.91034C104.978 0.894282 105.831 1.05428 106.625 1.38047C107.42 1.70666 108.139 2.19213 108.739 2.80694L108.385 3.18626C107.844 2.61347 107.19 2.15952 106.465 1.8533C105.739 1.54709 104.958 1.39532 104.17 1.40767C102.282 1.40767 99.6435 2.67207 99.6435 5.62234C99.6435 8.99407 103.285 9.50826 106.084 10.7727C107.997 11.6156 109.565 12.9053 109.565 15.4678C109.565 18.3759 107.247 20.3737 104.229 20.3737C103.033 20.4146 101.847 20.1364 100.794 19.5676C99.7405 18.9987 98.8576 18.1597 98.2358 17.1368L98.6236 16.7828Z" fill="#262626"/>
<path d="M112.237 1.18854H112.776V20.0702H112.237V1.18854Z" fill="#262626"/>
<path d="M131.658 9.76959H124.4V9.27226H132.197V16.6901C130.954 18.2607 129.251 19.4031 127.326 19.9574C125.401 20.5116 123.351 20.4499 121.463 19.7809C119.575 19.1119 117.943 17.8691 116.797 16.2265C115.65 14.584 115.046 12.6239 115.069 10.621C115.069 5.17561 119.039 0.910364 124.485 0.910364C125.749 0.901821 127.002 1.15673 128.163 1.65886C129.324 2.16099 130.368 2.89934 131.228 3.82691L130.849 4.18095C130.035 3.29988 129.046 2.59765 127.946 2.11879C126.846 1.63994 125.659 1.39491 124.459 1.39927C119.309 1.39927 115.583 5.52964 115.583 10.621C115.534 11.8388 115.736 13.0537 116.175 14.1906C116.614 15.3276 117.282 16.3625 118.136 17.2314C118.991 18.1003 120.015 18.7848 121.144 19.2426C122.274 19.7004 123.485 19.9218 124.704 19.8932C126.035 19.9021 127.351 19.6077 128.551 19.0322C129.752 18.4568 130.806 17.6154 131.633 16.5721L131.658 9.76959Z" fill="#262626"/>
<path d="M135.165 1.18854H135.434L149.461 18.8901V1.18854H150.042V20.0702H149.773L135.712 2.37707V20.0787H135.173L135.165 1.18854Z" fill="#262626"/>
</g>
<defs>
<clipPath id="clip0">
<rect width="150" height="21.2166" fill="white"/>
</clipPath>
</defs>
</svg>
