<svg width="150" height="47" viewBox="0 0 150 47" fill="none" xmlns="http://www.w3.org/2000/svg">
<g clip-path="url(#clip0)">
<path d="M20.9696 8.52882C20.9716 8.81361 20.9145 9.09572 20.8019 9.3573C20.6892 9.61888 20.5235 9.85423 20.3152 10.0484C20.1069 10.2494 19.8593 10.4054 19.5881 10.5065C19.3126 10.6147 19.0189 10.669 18.7229 10.6665H14.8838V2.40667H18.7374C19.0084 2.40457 19.2756 2.46952 19.5154 2.59571C19.743 2.71609 19.9454 2.87899 20.1116 3.07559C20.4441 3.48701 20.6239 4.00083 20.6206 4.52979C20.6249 4.93431 20.5167 5.33206 20.3079 5.6786C20.1043 6.01994 19.7993 6.28934 19.4354 6.44932C19.888 6.57413 20.2836 6.85154 20.5551 7.23459C20.8276 7.61086 20.9728 8.06428 20.9696 8.52882V8.52882ZM15.48 2.94472V6.24573H18.5047C18.7188 6.24925 18.9306 6.2019 19.1228 6.10759C19.3121 6.01672 19.4844 5.89372 19.6317 5.74404C19.7701 5.58829 19.8786 5.40835 19.9517 5.21326C20.0293 5.01651 20.0688 4.80676 20.068 4.59523C20.0696 4.37955 20.0327 4.16533 19.9589 3.96265C19.8825 3.76973 19.7717 3.59233 19.6317 3.43914C19.5066 3.28682 19.3504 3.16289 19.1737 3.07559C18.9875 2.9871 18.7836 2.94234 18.5774 2.94472H15.48ZM20.3588 8.44884C20.3598 8.23021 20.3204 8.01328 20.2425 7.80899C20.1707 7.6089 20.0622 7.42396 19.9226 7.26367C19.7831 7.10755 19.6153 6.97926 19.4281 6.88558C19.2377 6.79363 19.0288 6.74638 18.8174 6.74743H15.48V10.1357H18.7447C18.9687 10.1377 19.1902 10.088 19.3918 9.99028C19.5882 9.90138 19.764 9.77263 19.908 9.61219C20.0508 9.45289 20.1663 9.27109 20.2498 9.07414C20.3283 8.8753 20.3654 8.66252 20.3588 8.44884V8.44884Z" fill="#262626"/>
<path d="M25.2955 10.7247C24.751 10.7327 24.2126 10.6106 23.7249 10.3684C23.2772 10.1381 22.8754 9.82757 22.5398 9.45225C22.1958 9.05869 21.9271 8.60519 21.7472 8.11439C21.5503 7.61369 21.4444 7.08182 21.4346 6.54387C21.4336 6.00384 21.5347 5.4685 21.7327 4.96607C21.9173 4.47653 22.1909 4.0254 22.5398 3.63548C22.8821 3.23842 23.3029 2.91658 23.7758 2.69025C24.2548 2.4619 24.7794 2.34506 25.31 2.34852C25.8631 2.34029 26.4098 2.46761 26.9023 2.71934C27.3693 2.95488 27.7845 3.28116 28.1239 3.67911C28.4549 4.07808 28.7155 4.53049 28.8946 5.01696C29.0754 5.50582 29.1689 6.02264 29.1709 6.54387C29.1718 7.0886 29.0707 7.62869 28.8728 8.13621C28.6844 8.62114 28.4083 9.06726 28.0584 9.45225C27.7127 9.83511 27.2952 10.1464 26.8296 10.3684C26.3518 10.6018 25.8272 10.7236 25.2955 10.7247V10.7247ZM22.0235 6.54387C22.0222 7.01011 22.1034 7.4729 22.2635 7.91081C22.4159 8.33665 22.6451 8.73095 22.9397 9.07416C23.2318 9.41101 23.5908 9.68339 23.994 9.87397C24.407 10.0799 24.8631 10.1846 25.3245 10.1793C25.7918 10.1873 26.2538 10.0799 26.6697 9.8667C27.0627 9.66073 27.4092 9.37611 27.6876 9.03054C28.2589 8.3279 28.5697 7.44941 28.5674 6.54387C28.5627 5.61406 28.2306 4.71562 27.6294 4.0063C27.3437 3.67581 26.9984 3.40203 26.6115 3.19922C26.2075 2.99857 25.761 2.89878 25.31 2.90838C24.8534 2.90546 24.4026 3.01008 23.994 3.21376C23.5969 3.41681 23.2456 3.69888 22.9615 4.04265C22.6701 4.38832 22.4457 4.78532 22.2998 5.21328C22.1284 5.63657 22.0348 6.08733 22.0235 6.54387V6.54387Z" fill="#262626"/>
<path d="M33.4974 10.1793C33.9846 10.2015 34.469 10.0936 34.9007 9.86669C35.2574 9.66926 35.5578 9.38393 35.7732 9.0378C35.9944 8.6806 36.1496 8.28655 36.2313 7.87444C36.3169 7.43617 36.3583 6.9904 36.3549 6.54386V2.40668H36.9511V6.54386C36.951 7.07741 36.8901 7.60921 36.7693 8.12893C36.6541 8.60309 36.4519 9.05177 36.1731 9.45224C35.9013 9.83873 35.5395 10.1532 35.1188 10.3684C34.6176 10.6066 34.0666 10.7212 33.5119 10.7028C32.9406 10.7246 32.3729 10.6021 31.8614 10.3466C31.4379 10.1395 31.0711 9.83257 30.7926 9.45224C30.5192 9.04961 30.3266 8.59772 30.2255 8.12166C30.1056 7.60439 30.0471 7.07481 30.051 6.54386V2.40668H30.6472V6.54386C30.6461 6.99306 30.6899 7.44124 30.7781 7.88171C30.8616 8.29561 31.0219 8.6902 31.2507 9.04507C31.4726 9.38202 31.7717 9.6612 32.1232 9.85942C32.5462 10.0823 33.0195 10.1924 33.4974 10.1793V10.1793Z" fill="#262626"/>
<path d="M44.1638 2.94473H41.1391V10.6665H40.5501V2.94473H37.5254V2.40668H44.1638V2.94473Z" fill="#262626"/>
<path d="M44.8618 10.6665V2.40668H45.458V10.6665H44.8618Z" fill="#262626"/>
<path d="M52.6564 9.88851C52.3333 10.1511 51.9699 10.3598 51.5803 10.5065C51.1798 10.6535 50.7562 10.7274 50.3297 10.7247C49.7852 10.7327 49.2468 10.6106 48.7591 10.3684C48.2984 10.1419 47.8841 9.83116 47.5376 9.45225C47.1936 9.05869 46.925 8.60519 46.7451 8.1144C46.5605 7.61142 46.467 7.07962 46.4688 6.54387C46.4678 6.00384 46.5689 5.4685 46.7669 4.96607C46.9537 4.47598 47.2298 4.02481 47.5812 3.63548C47.923 3.24086 48.3409 2.91935 48.81 2.69026C49.289 2.4619 49.8136 2.34506 50.3442 2.34852C50.8924 2.34266 51.4338 2.46991 51.922 2.71934C52.3889 2.95488 52.8042 3.28117 53.1435 3.67911C53.4797 4.07701 53.7453 4.52949 53.9288 5.01697C54.1096 5.50582 54.2031 6.02265 54.2051 6.54387C54.2065 7.10958 54.0978 7.67015 53.8852 8.19438C53.6837 8.7051 53.3849 9.17182 53.0054 9.56859L53.9288 10.6738H53.3108L52.6564 9.88851ZM50.3442 10.1794C50.709 10.1818 51.0712 10.1177 51.413 9.9903C51.7358 9.85995 52.0353 9.67825 52.3001 9.45225L51.3185 8.26709H51.9365L52.6636 9.11052C52.9782 8.76184 53.2248 8.35741 53.3907 7.91808C53.5379 7.47515 53.6092 7.01054 53.6016 6.54387C53.5993 5.61838 53.2725 4.723 52.6782 4.01357C52.384 3.67517 52.0256 3.3984 51.6239 3.19922C51.2265 3.00198 50.7878 2.90228 50.3442 2.90839C49.8742 2.90417 49.4101 3.01395 48.9918 3.22831C48.6065 3.43035 48.2654 3.7072 47.9884 4.04266C47.697 4.38833 47.4726 4.78532 47.3267 5.21328C47.1602 5.63746 47.0715 6.08821 47.065 6.54387C47.0648 7.00938 47.1435 7.47157 47.2977 7.91081C47.4501 8.33666 47.6793 8.73096 47.9739 9.07416C48.2621 9.41394 48.6189 9.68897 49.0209 9.88124C49.4323 10.0835 49.8858 10.1857 50.3442 10.1794Z" fill="#262626"/>
<path d="M58.5241 10.1793C59.0064 10.1982 59.4852 10.0904 59.9128 9.86669C60.2696 9.66926 60.5699 9.38393 60.7853 9.0378C61.0041 8.68017 61.1568 8.28611 61.2361 7.87444C61.3302 7.43722 61.3765 6.99108 61.3743 6.54386V2.40668H61.9632V6.54386C61.9714 7.08143 61.9177 7.61815 61.8033 8.14347C61.6841 8.61306 61.4795 9.05671 61.1998 9.45224C60.9249 9.83865 60.5607 10.1529 60.1382 10.3684C59.6254 10.5961 59.0706 10.7137 58.5095 10.7137C57.9485 10.7137 57.3936 10.5961 56.8808 10.3684C56.4576 10.1542 56.0931 9.83963 55.8193 9.45224C55.5492 9.04068 55.3593 8.58185 55.2594 8.09984C55.1425 7.58933 55.0815 7.06758 55.0776 6.54386V2.40668H55.6739V6.54386C55.6727 6.99306 55.7166 7.44124 55.8047 7.88171C55.8857 8.2952 56.0435 8.68982 56.2701 9.04507C56.4968 9.38058 56.7979 9.65926 57.1499 9.85942C57.5729 10.0823 58.0461 10.1924 58.5241 10.1793V10.1793Z" fill="#262626"/>
<path d="M68.9216 10.1357V10.6665H63.4175V2.40668H68.8198V2.94473H63.9846V6.18758H68.1872V6.70382H63.9846V10.1357H68.9216Z" fill="#262626"/>
<path d="M72.3169 12.1789V1.65051H72.8404V12.1789H72.3169Z" fill="#262626"/>
<path d="M84.2704 10.6665V3.52641L81.0057 9.09597H80.6349L77.3775 3.52641V10.6665H76.7886V2.40668H77.3775L80.824 8.31797L84.2704 2.40668H84.8594V10.6665H84.2704Z" fill="#262626"/>
<path d="M89.731 10.7247C89.1867 10.7319 88.6484 10.6098 88.1605 10.3684C87.2224 9.89433 86.5035 9.07645 86.1537 8.0853C85.9669 7.59281 85.8708 7.07057 85.8701 6.54385C85.8691 6.00383 85.9703 5.46849 86.1682 4.96605C86.355 4.47596 86.6312 4.0248 86.9826 3.63547C87.3257 3.24609 87.7436 2.9296 88.2114 2.70478C88.6904 2.47643 89.2149 2.35959 89.7456 2.36305C90.2937 2.35719 90.8352 2.48444 91.3234 2.73387C91.7903 2.96941 92.2056 3.29569 92.5449 3.69363C92.881 4.09153 93.1466 4.54401 93.3301 5.03149C93.5093 5.51576 93.6028 6.02752 93.6064 6.54385C93.6117 7.08898 93.5104 7.62987 93.3083 8.13619C93.1197 8.61937 92.8464 9.06502 92.5013 9.45224C92.1541 9.83345 91.7369 10.1445 91.2725 10.3684C90.7921 10.6019 90.2651 10.7237 89.731 10.7247V10.7247ZM86.4663 6.54385C86.465 7.01009 86.5462 7.47289 86.7063 7.91079C86.8562 8.33624 87.0829 8.73056 87.3752 9.07415C87.6635 9.41392 88.0203 9.68895 88.4222 9.88122C88.8331 10.086 89.2865 10.1907 89.7456 10.1866C90.2128 10.1945 90.6748 10.0871 91.0907 9.87395C91.4859 9.66812 91.8348 9.38356 92.1159 9.03779C92.4007 8.69145 92.6222 8.29765 92.7703 7.87444C92.9226 7.44728 93.0013 6.99735 93.003 6.54385C93.0006 5.61836 92.6739 4.72298 92.0795 4.01356C91.791 3.68004 91.4404 3.40591 91.0471 3.20648C90.6437 3.00331 90.1971 2.90102 89.7456 2.90837C89.2755 2.90416 88.8115 3.01393 88.3932 3.22829C87.9973 3.43319 87.6463 3.71498 87.3607 4.05718C87.0721 4.40481 86.848 4.80126 86.699 5.22781C86.5475 5.65015 86.4688 6.09516 86.4663 6.54385V6.54385Z" fill="#262626"/>
<path d="M95.2496 3.52641V10.6665H94.6606V2.40668H95.1114L100.928 9.67764V2.40668H101.517V10.6665H100.972L95.2496 3.52641Z" fill="#262626"/>
<path d="M108.803 2.94473H105.778V10.6665H105.182V2.94473H102.157V2.40668H108.803V2.94473Z" fill="#262626"/>
<path d="M109.5 10.6665V2.40671H112.932C113.268 2.40265 113.6 2.47999 113.899 2.63211C114.176 2.77834 114.423 2.97571 114.627 3.21378C114.843 3.45744 115.013 3.73829 115.128 4.04267C115.248 4.33589 115.309 4.64945 115.31 4.96609C115.318 5.25361 115.282 5.54068 115.201 5.81679C115.112 6.09055 114.979 6.34828 114.808 6.58024C114.637 6.80171 114.428 6.99123 114.19 7.1401C113.946 7.28487 113.678 7.38346 113.398 7.43094L115.455 10.6374H114.772L112.765 7.51819H110.089V10.6374L109.5 10.6665ZM110.089 7.03104H112.998C113.251 7.03496 113.501 6.97494 113.725 6.85654C113.941 6.74323 114.131 6.58741 114.285 6.39847C114.44 6.20238 114.561 5.98103 114.641 5.74408C114.717 5.50925 114.757 5.26393 114.757 5.01698C114.755 4.76762 114.706 4.52092 114.612 4.28989C114.522 4.05426 114.388 3.83734 114.219 3.65004C114.056 3.4638 113.859 3.31074 113.638 3.19924C113.412 3.08617 113.163 3.02883 112.911 3.03201H110.089V7.03104Z" fill="#262626"/>
<path d="M121.97 10.1357V10.6665H116.466V2.40669H121.869V2.94474H117.063V6.18759H121.258V6.70383H117.063V10.1357H121.97ZM119.331 1.1779L118.924 0.988851L119.651 0H120.327L119.331 1.1779Z" fill="#262626"/>
<path d="M125.599 2.40668H126.115L129.598 10.6665H128.973L127.824 7.94715H123.876L122.727 10.6665H122.087L125.599 2.40668ZM127.656 7.49635L125.853 3.13377L124.014 7.49635H127.656Z" fill="#262626"/>
<path d="M130.274 10.6665V2.40668H130.877V10.1357H135.807V10.6665H130.274Z" fill="#262626"/>
<path d="M8.62336 39.3723C7.02021 39.3729 5.42806 39.1076 3.91178 38.587C2.45973 38.1141 1.12586 37.3356 0 36.3039L2.26854 32.3267C3.30171 33.0353 4.40848 33.6302 5.56956 34.1008C6.49026 34.4938 7.47719 34.7084 8.47795 34.7334C9.40863 34.7334 9.87397 34.4425 9.87397 33.8609C9.86686 33.6862 9.81324 33.5166 9.71865 33.3696C9.62406 33.2226 9.49193 33.1035 9.33592 33.0247C8.66887 32.6701 7.96068 32.399 7.22734 32.2176C6.1188 31.9151 5.02874 31.5485 3.96268 31.1197C3.20512 30.8228 2.48907 30.4294 1.83228 29.9491C1.33121 29.5892 0.928655 29.1092 0.661658 28.5531C0.417665 27.9813 0.298672 27.364 0.312651 26.7426C0.30556 25.849 0.496774 24.9649 0.872516 24.1541C1.24159 23.367 1.77167 22.666 2.4285 22.0964C3.12386 21.4985 3.92894 21.0417 4.79884 20.7513C5.77221 20.4313 6.79172 20.2741 7.81629 20.286C9.12137 20.2795 10.4209 20.4557 11.6772 20.8095C13.0435 21.2408 14.2992 21.9654 15.3563 22.9326L12.8405 26.9025C11.9397 26.284 10.983 25.7509 9.98303 25.3102C9.29326 25.0133 8.55253 24.8529 7.80175 24.8376C7.46189 24.8254 7.12511 24.9058 6.82744 25.0703C6.69727 25.1383 6.59079 25.2443 6.522 25.3741C6.45321 25.5038 6.42534 25.6514 6.44207 25.7974C6.44815 25.9779 6.50354 26.1533 6.60223 26.3045C6.70093 26.4558 6.83917 26.5771 7.00194 26.6553C7.69873 26.9806 8.43064 27.2246 9.18323 27.3824C10.3251 27.6686 11.4452 28.0355 12.5351 28.4803C13.3198 28.7907 14.0547 29.2146 14.7164 29.7382C15.2374 30.1392 15.6499 30.6641 15.9161 31.2651C16.1595 31.893 16.2781 32.5623 16.2651 33.2356C16.2804 34.1144 16.1017 34.9858 15.7416 35.7877C15.3873 36.5346 14.8677 37.191 14.222 37.7072C13.5055 38.2649 12.6884 38.6796 11.8153 38.9287C10.7778 39.2275 9.70302 39.3769 8.62336 39.3723V39.3723Z" fill="#262626"/>
<path d="M25.8265 39.3723C24.3633 39.4061 22.9071 39.1593 21.5367 38.6452C20.3511 38.1928 19.2736 37.4967 18.3738 36.602C17.5331 35.7558 16.8748 34.7462 16.4397 33.6355C15.996 32.513 15.7714 31.316 15.7781 30.1091C15.7698 28.8259 15.9863 27.5512 16.4179 26.3427C16.8352 25.1857 17.4889 24.1284 18.3374 23.238C19.2243 22.311 20.2938 21.5781 21.4785 21.0858C22.8657 20.5356 24.3491 20.2686 25.8411 20.3005C27.3161 20.275 28.7815 20.5419 30.1528 21.0858C31.3386 21.5613 32.4148 22.2739 33.3156 23.1798C34.1567 24.0509 34.81 25.0854 35.2352 26.2191C35.6666 27.3822 35.8834 28.614 35.875 29.8546C35.876 30.2091 35.859 30.5634 35.8241 30.9161C35.7878 31.2797 35.7514 31.5996 35.7005 31.8759H22.8236C22.822 32.2895 22.9196 32.6974 23.1081 33.0656C23.2966 33.4337 23.5705 33.7513 23.907 33.9918C24.5373 34.413 25.2793 34.6359 26.0374 34.6316C26.7452 34.6436 27.4456 34.4866 28.0805 34.1735C28.6666 33.9048 29.1236 33.4165 29.353 32.8139L34.9734 34.4208C34.1916 35.9205 32.9986 37.1664 31.5342 38.0126C29.7916 38.9787 27.8176 39.4489 25.8265 39.3723V39.3723ZM28.7349 27.8914C28.6636 27.1013 28.3191 26.3608 27.7606 25.7974C27.189 25.3002 26.4569 25.0264 25.6993 25.0264C24.9417 25.0264 24.2096 25.3002 23.638 25.7974C23.0795 26.3608 22.735 27.1013 22.6637 27.8914H28.7349Z" fill="#262626"/>
<path d="M48.6502 39.3723C47.4516 39.4019 46.2645 39.132 45.1965 38.587C44.2187 38.074 43.4181 37.2785 42.8989 36.3039V46.4833H36.2969V20.6641H42.0555V23.4271C42.6541 22.471 43.4811 21.6789 44.4622 21.1222C45.5481 20.5527 46.7631 20.2746 47.9886 20.3151C49.1573 20.3093 50.3134 20.5573 51.3769 21.0422C52.4013 21.5005 53.316 22.1723 54.0598 23.0126C54.8313 23.8943 55.4306 24.9129 55.8267 26.0155C56.2653 27.2322 56.482 28.5177 56.4665 29.811C56.4782 31.1093 56.2793 32.4009 55.8776 33.6355C55.5136 34.7421 54.9573 35.7758 54.2343 36.6893C53.5617 37.5287 52.7161 38.2131 51.7549 38.6961C50.7869 39.1604 49.7237 39.392 48.6502 39.3723V39.3723ZM46.3453 33.7882C46.815 33.7862 47.2769 33.6689 47.6905 33.4464C48.0878 33.2406 48.4371 32.9532 48.7157 32.603C49.028 32.2148 49.2737 31.7775 49.4428 31.3088C49.6202 30.8043 49.7087 30.273 49.7045 29.7383C49.7316 29.2307 49.6582 28.7228 49.4885 28.2436C49.3188 27.7645 49.0562 27.3236 48.7157 26.9462C48.3756 26.5959 47.9653 26.3215 47.5117 26.1411C47.058 25.9606 46.5713 25.8782 46.0836 25.8992C45.4344 25.9111 44.7995 26.0917 44.2412 26.4231C43.6828 26.7546 43.2203 27.2255 42.8989 27.7896V30.9598C43.2078 31.7462 43.7075 32.4433 44.3531 32.9884C44.8974 33.489 45.6059 33.7735 46.3453 33.7882V33.7882Z" fill="#262626"/>
<path d="M69.8011 38.0126C68.8336 38.4183 67.8371 38.7513 66.82 39.0087C65.7985 39.2716 64.7483 39.4059 63.6935 39.4086C62.9743 39.4105 62.258 39.3176 61.5631 39.1323C60.9188 38.9574 60.319 38.6476 59.8035 38.2234C59.285 37.7763 58.879 37.2134 58.6184 36.5802C58.3019 35.783 58.1533 34.929 58.1821 34.0717V25.6592H55.9136V20.6641H58.1676V14.9055H64.7987V20.6641H68.3905V25.6592H64.8132V31.7305C64.7886 31.957 64.8093 32.1863 64.8743 32.4047C64.9392 32.6232 65.047 32.8265 65.1913 33.0029C65.4775 33.2602 65.854 33.3935 66.2383 33.3737C66.6165 33.364 66.9923 33.3104 67.3581 33.2137C67.79 33.1076 68.2111 32.9615 68.6159 32.7775L69.8011 38.0126Z" fill="#262626"/>
<path d="M70.0122 32.3558V26.4227H80.9187V32.3558H70.0122Z" fill="#262626"/>
<path d="M81.5948 29.8473C81.589 28.6044 81.8159 27.3713 82.2638 26.2118C82.6915 25.076 83.3501 24.0411 84.1978 23.1726C85.0967 22.2694 86.1705 21.5593 87.3534 21.0858C88.7406 20.5352 90.224 20.2682 91.716 20.3005C93.6787 20.2302 95.6215 20.714 97.3219 21.6966C98.7631 22.5684 99.9297 23.8283 100.688 25.332L94.2318 27.2879C93.9634 26.8582 93.5874 26.5059 93.1411 26.2662C92.6947 26.0264 92.1934 25.9074 91.6869 25.921C91.2487 25.9042 90.8122 25.9833 90.4078 26.1529C90.0034 26.3224 89.6409 26.5783 89.3457 26.9026C88.6707 27.7157 88.3325 28.7564 88.4005 29.811C88.334 30.8654 88.672 31.9055 89.3457 32.7193C89.6325 33.0472 89.9872 33.3087 90.3853 33.4857C90.7833 33.6627 91.215 33.7511 91.6506 33.7446C92.1564 33.7589 92.6572 33.641 93.1035 33.4025C93.5498 33.1641 93.9262 32.8133 94.1954 32.3849L100.652 34.3408C99.8854 35.8276 98.7197 37.0714 97.2856 37.9326C95.5851 38.9152 93.6423 39.399 91.6797 39.3287C90.1876 39.361 88.7042 39.094 87.3171 38.5434C86.1335 38.0677 85.0596 37.3551 84.1615 36.4494C83.3297 35.5891 82.6837 34.567 82.2638 33.4464C81.821 32.2982 81.5942 31.078 81.5948 29.8473V29.8473Z" fill="#262626"/>
<path d="M101.001 19.1299V13.5458H107.61V19.1299H101.001ZM101.001 39.0232V20.6641H107.61V39.0232H101.001Z" fill="#262626"/>
<path d="M127.7 39.0232H121.069V28.6912C121.133 27.9796 120.913 27.2715 120.458 26.7208C120.277 26.5283 120.058 26.3749 119.816 26.2698C119.573 26.1648 119.312 26.1104 119.047 26.11C118.389 26.1477 117.762 26.4036 117.266 26.8371C116.636 27.3239 116.152 27.9757 115.87 28.7203V39.0232H109.239V20.6641H115.208V23.3907C115.871 22.3686 116.823 21.5664 117.942 21.0858C119.275 20.5334 120.71 20.2707 122.152 20.3151C123.19 20.2637 124.221 20.5002 125.133 20.9985C125.828 21.4108 126.406 21.994 126.813 22.6927C127.189 23.3682 127.435 24.1079 127.54 24.8739C127.65 25.5667 127.708 26.2666 127.714 26.968L127.7 39.0232Z" fill="#262626"/>
<path d="M136.04 39.3722C134.962 39.3762 133.899 39.1271 132.935 38.6451C131.975 38.1603 131.13 37.4761 130.456 36.6384C129.733 35.7249 129.177 34.6912 128.813 33.5846C128.411 32.3499 128.212 31.0583 128.224 29.76C128.214 28.4761 128.433 27.2007 128.871 25.9937C129.264 24.8914 129.861 23.8728 130.63 22.9908C131.391 22.1337 132.326 21.4499 133.374 20.9858C134.421 20.5216 135.556 20.2879 136.702 20.3005C137.931 20.2605 139.149 20.5518 140.228 21.1439C141.204 21.7203 142.029 22.5203 142.635 23.4779V20.6641H148.393V38.7833C148.345 39.2476 148.47 39.7133 148.742 40.0921C149.099 40.3785 149.543 40.5327 150 40.5283V46.1124C149.378 46.2346 148.749 46.322 148.117 46.3742C147.441 46.4324 146.845 46.4614 146.336 46.4614C145.736 46.4648 145.141 46.3639 144.576 46.1633C144.047 45.9775 143.554 45.6994 143.122 45.3417C142.692 44.9777 142.35 44.5226 142.118 44.0094C141.887 43.4963 141.773 42.938 141.784 42.3752V36.3039C141.277 37.2775 140.486 38.0737 139.515 38.587C138.441 39.1356 137.246 39.4056 136.04 39.3722V39.3722ZM138.621 33.7881C139.265 33.7683 139.893 33.5851 140.446 33.2557C140.999 32.9262 141.46 32.4614 141.784 31.905V28.6258C141.485 27.8502 140.983 27.1695 140.33 26.6553C139.773 26.1898 139.071 25.9328 138.345 25.9282C137.877 25.9252 137.416 26.0349 137 26.2482C136.589 26.4551 136.23 26.7536 135.953 27.1207C135.652 27.4927 135.411 27.9099 135.24 28.3567C135.063 28.8612 134.974 29.3926 134.978 29.9273C134.927 30.9519 135.282 31.9554 135.967 32.7193C136.308 33.0764 136.721 33.3565 137.179 33.5408C137.636 33.7251 138.128 33.8095 138.621 33.7881V33.7881Z" fill="#262626"/>
</g>
<defs>
<clipPath id="clip0">
<rect width="150" height="46.4615" fill="white"/>
</clipPath>
</defs>
</svg>
