<svg width="150" height="150" viewBox="0 0 150 150" fill="none" xmlns="http://www.w3.org/2000/svg">
<path d="M75 0C33.6 0 0 33.6 0 75C0 116.4 33.6 150 75 150C116.4 150 150 116.4 150 75C150 33.6 116.4 0 75 0ZM75 148.5C34.5 148.5 1.5 115.5 1.5 75C1.5 34.5 34.5 1.5 75 1.5C115.5 1.5 148.5 34.5 148.5 75C148.5 115.5 115.5 148.5 75 148.5Z" fill="white"/>
<path fill-rule="evenodd" clip-rule="evenodd" d="M62.4751 40.8C62.5501 40.8 62.6251 40.875 62.7751 40.875C63.4501 40.95 64.1251 41.025 64.7251 41.1C66.9751 41.475 69.0751 42.3 70.9501 43.5C73.5751 45.225 75.6751 47.475 77.1751 50.25C77.9251 51.75 78.4501 53.25 78.7501 54.9C78.9751 56.325 79.1251 57.675 79.0501 59.1C78.9751 60.6 78.7501 62.1 78.3751 63.6C78.0001 64.95 77.4751 66.15 76.8001 67.35C76.7251 67.425 76.7251 67.5 76.6501 67.575C76.6501 67.575 76.6501 67.575 76.6501 67.65C76.7251 67.65 76.7251 67.725 76.8001 67.725C79.9501 69.075 82.5001 71.175 84.4501 74.025C85.8001 75.9 86.7001 78.075 87.1501 80.325C87.4501 81.825 87.5251 83.4 87.4501 84.9C87.3751 86.85 87.0001 88.8 86.3251 90.6C85.5001 92.7 84.3001 94.5 82.8001 96.15C81.4501 97.575 79.9501 98.7 78.2251 99.6C76.8001 100.35 75.2251 100.875 73.6501 101.175C72.2251 101.4 70.8751 101.55 69.4501 101.475C67.8001 101.4 66.2251 101.175 64.6501 100.65C62.5501 99.975 60.6751 98.85 58.9501 97.425C57.3751 96.075 56.0251 94.5 54.9751 92.7C54.0001 91.05 53.4001 89.25 53.0251 87.45C52.7251 85.875 52.6501 84.3 52.8001 82.725C52.9501 79.95 53.7001 77.325 55.1251 74.925C55.1251 74.85 55.2001 74.775 55.2001 74.7C55.1251 74.625 55.0501 74.625 54.9751 74.55C53.5501 73.95 52.2751 73.2 51.0751 72.3C48.9751 70.65 47.3251 68.7 46.1251 66.375C45.3751 64.875 44.8501 63.3 44.5501 61.65C44.3251 60.3 44.2501 58.95 44.2501 57.6C44.3251 55.125 44.8501 52.8 45.9001 50.55C46.9501 48.3 48.5251 46.35 50.4001 44.7C52.2751 43.05 54.4501 41.925 56.8501 41.325C57.7501 41.1 58.7251 40.875 59.7001 40.8C59.9251 40.8 60.2251 40.725 60.4501 40.725C60.5251 40.725 60.6001 40.725 60.6751 40.65C61.3501 40.8 61.9501 40.8 62.4751 40.8ZM58.2001 75.525C58.1251 75.6 58.1251 75.6 58.1251 75.675C57.9751 75.9 57.8251 76.125 57.6751 76.35C56.4751 78.45 55.8001 80.7 55.6501 83.1C55.5751 84.375 55.6501 85.575 55.8751 86.85C56.1751 88.425 56.7001 89.85 57.4501 91.275C58.2751 92.775 59.3251 94.05 60.6001 95.175C63.0001 97.275 65.7751 98.475 69.0001 98.7C70.0501 98.775 71.1001 98.775 72.1501 98.625C73.3501 98.475 74.5501 98.175 75.6751 97.725C77.7001 96.9 79.4251 95.7 80.8501 94.05C82.1251 92.7 83.0251 91.2 83.7001 89.4C84.2251 87.9 84.5251 86.4 84.6001 84.825C84.6751 83.625 84.6001 82.5 84.3751 81.3C84.1501 79.8 83.6251 78.45 82.9501 77.1C81.9751 75.3 80.7001 73.8 79.1251 72.525C77.8501 71.475 76.5001 70.725 75.0001 70.2C74.9251 70.2 74.8501 70.125 74.7751 70.125C74.7001 70.2 74.6251 70.275 74.5501 70.35C73.0501 71.925 71.4001 73.2 69.4501 74.175C67.8751 74.925 66.2251 75.45 64.5001 75.675C63.8251 75.75 63.1501 75.825 62.5501 75.825C61.3501 75.9 60.2251 75.825 59.0251 75.675C58.8001 75.675 58.5001 75.6 58.2001 75.525ZM57.0751 72.225C57.1501 72.15 57.1501 72.075 57.2251 72.075C57.4501 71.775 57.7501 71.55 58.0501 71.25C60.0001 69.3 62.3251 67.95 64.9501 67.125C66.2251 66.75 67.5751 66.525 68.9251 66.45C70.5001 66.375 72.0001 66.45 73.5001 66.75C73.5751 66.75 73.5751 66.75 73.6501 66.75C73.7251 66.675 73.7251 66.6 73.8001 66.525C74.1001 66.075 74.4001 65.55 74.7001 65.025C75.6001 63.225 75.9751 61.35 76.1251 59.4C76.2001 58.2 76.1251 57 75.9751 55.875C75.7501 54.375 75.3001 52.95 74.5501 51.525C73.7251 49.875 72.5251 48.525 71.1751 47.25C68.7751 45.15 66.0751 43.95 62.9251 43.725C61.5001 43.65 60.1501 43.65 58.7251 43.95C57.4501 44.175 56.1751 44.625 55.0501 45.225C52.3501 46.575 49.9501 49.05 48.6751 51.825C47.7751 53.7 47.3251 55.725 47.2501 57.75C47.2501 58.8 47.2501 59.925 47.4751 60.975C47.7001 62.55 48.2251 64.05 48.9751 65.4C49.9501 67.125 51.2251 68.55 52.7251 69.825C53.9251 70.8 55.2751 71.625 56.7751 72.15C56.9251 72.15 57.0001 72.225 57.0751 72.225ZM60.5251 72.9C63.0751 73.05 65.4001 72.75 67.6501 71.775C68.9251 71.175 70.8751 69.975 71.2501 69.45C71.1751 69.45 71.1001 69.45 71.1001 69.45C70.2001 69.375 69.3001 69.375 68.4001 69.525C67.5001 69.6 66.6001 69.825 65.7751 70.05C63.9001 70.575 62.2501 71.55 60.8251 72.825C60.6751 72.75 60.6751 72.825 60.5251 72.9Z" fill="white"/>
<path fill-rule="evenodd" clip-rule="evenodd" d="M127.275 43.65C127.125 43.65 127.05 43.65 126.9 43.65C122.7 43.65 118.5 43.65 114.3 43.65C114.15 43.65 114.075 43.65 113.925 43.65C113.925 43.725 113.925 43.8 113.925 43.8C113.925 43.875 113.925 43.95 113.925 44.025C113.925 46.725 113.925 49.425 113.925 52.125C113.925 52.275 113.925 52.35 113.925 52.5C114 52.5 114.075 52.5 114.075 52.5C114.15 52.5 114.3 52.5 114.375 52.5C118.5 52.5 122.625 52.5 126.825 52.5C126.975 52.5 127.05 52.5 127.2 52.5C127.2 52.575 127.2 52.65 127.2 52.65C127.2 53.475 127.2 54.3 127.2 55.05C127.2 55.125 127.2 55.125 127.2 55.2C126.825 55.2 126.525 55.2 126.15 55.2C125.85 55.2 125.475 55.2 125.175 55.2C124.8 55.2 124.5 55.2 124.125 55.2C123.825 55.2 123.45 55.2 123.15 55.2C122.775 55.2 122.475 55.2 122.1 55.2C121.725 55.2 121.425 55.2 121.05 55.2C120.75 55.2 120.375 55.2 120.075 55.2C119.7 55.2 119.4 55.2 119.025 55.2C118.65 55.2 118.35 55.2 117.975 55.2C117.675 55.2 117.3 55.2 117 55.2C116.625 55.2 116.325 55.2 115.95 55.2C115.65 55.2 115.275 55.2 114.975 55.2C114.6 55.2 114.3 55.2 113.925 55.2C113.925 55.275 113.925 55.35 113.925 55.35C113.925 55.425 113.925 55.5 113.925 55.575C113.925 59.025 113.925 62.55 113.925 66C113.925 66.15 113.925 66.225 113.925 66.375C114 66.375 114.075 66.375 114.075 66.375C114.15 66.375 114.3 66.375 114.375 66.375C118.5 66.375 122.625 66.375 126.75 66.375C126.9 66.375 126.975 66.375 127.125 66.375C127.125 66.45 127.125 66.45 127.125 66.525C127.125 67.425 127.125 68.25 127.125 69.15V69.225C126.825 69.3 112.8 69.3 111.225 69.225C111.15 69.225 111.15 69.225 111.075 69.225C111.075 69.225 111.075 69.225 111 69.15C111 59.7 111 50.175 111 40.725C111 40.65 111 40.65 111 40.575C111.075 40.575 111.075 40.575 111.15 40.575C111.225 40.575 111.375 40.575 111.45 40.575C116.55 40.575 121.725 40.575 126.825 40.575C126.975 40.575 127.05 40.575 127.2 40.575C127.275 41.775 127.275 42.75 127.275 43.65Z" fill="white"/>
<path fill-rule="evenodd" clip-rule="evenodd" d="M127.275 75.675C127.125 75.675 127.05 75.675 126.9 75.675C125.025 75.675 123.15 75.675 121.275 75.675C121.125 75.675 121.05 75.675 120.9 75.675C120.9 75.75 120.9 75.825 120.9 75.825C120.9 75.9 120.9 76.05 120.9 76.125C120.9 84.45 120.9 92.775 120.9 101.1C120.9 101.25 120.9 101.325 120.9 101.475C120.825 101.475 120.825 101.475 120.75 101.475C119.85 101.475 118.95 101.475 118.05 101.475C118.05 101.4 118.05 101.325 118.05 101.325C118.05 101.25 118.05 101.1 118.05 101.025C118.05 92.7 118.05 84.375 118.05 76.05C118.05 75.9 118.05 75.75 118.05 75.675C117.75 75.675 117.45 75.675 117.15 75.675C116.85 75.675 116.55 75.675 116.25 75.675C115.95 75.675 115.65 75.675 115.35 75.675C115.05 75.675 114.75 75.675 114.45 75.675C114.15 75.675 113.85 75.675 113.55 75.675C113.25 75.675 112.95 75.675 112.65 75.675C112.35 75.675 112.05 75.675 111.75 75.675C111.75 75.6 111.75 75.6 111.75 75.525C111.75 74.7 111.75 73.875 111.75 73.05V72.975C111.825 72.975 111.825 72.975 111.9 72.975C111.975 72.975 112.125 72.975 112.2 72.975C117.15 72.975 122.1 72.975 127.05 72.975C127.2 72.975 127.275 72.975 127.425 72.975C127.275 73.8 127.275 74.7 127.275 75.675Z" fill="white"/>
<path fill-rule="evenodd" clip-rule="evenodd" d="M95.4001 109.2C95.3251 109.2 95.2501 109.125 95.1751 109.125C94.7251 109.05 94.3501 108.825 94.2001 108.375C94.2001 108.375 94.2001 108.3 94.1251 108.3C94.1251 108.3 94.1251 108.3 94.1251 108.225C94.2001 108.225 94.3501 108.225 94.5001 108.225C94.5751 108.3 94.5751 108.3 94.6501 108.375C94.8001 108.525 94.9501 108.675 95.1751 108.75C95.5501 108.825 95.8501 108.825 96.1501 108.75C96.4501 108.6 96.6751 108.375 96.7501 108C96.7501 107.85 96.8251 107.7 96.7501 107.55C96.6751 107.625 96.6751 107.625 96.6001 107.7C96.1501 108.075 95.7001 108.15 95.1001 108.075C93.9751 107.775 93.6751 106.5 94.2751 105.675C94.7251 105.15 95.2501 104.925 95.9251 105.075C96.1501 105.15 96.3001 105.225 96.5251 105.375C96.6001 105.45 96.6751 105.45 96.7501 105.525C96.8251 105.375 96.7501 105.225 96.8251 105.075C96.9001 105.075 97.0501 105.075 97.2001 105.075C97.2001 105.15 97.2001 105.225 97.2001 105.3C97.2001 106.05 97.2001 106.8 97.2001 107.55C97.2001 107.7 97.2001 107.85 97.2001 108C97.1251 108.675 96.7501 109.05 96.1501 109.2C96.0751 109.2 96.0001 109.275 95.9251 109.275C95.7001 109.2 95.5501 109.2 95.4001 109.2ZM95.6251 107.7C95.7001 107.7 95.7001 107.7 95.7751 107.7C96.2251 107.7 96.6001 107.475 96.7501 107.025C96.9001 106.575 96.8251 106.125 96.5251 105.75C96.0001 105.225 94.9501 105.225 94.5751 106.125C94.3501 106.575 94.5001 107.1 94.8751 107.4C95.0251 107.625 95.3251 107.7 95.6251 107.7Z" fill="white"/>
<path fill-rule="evenodd" clip-rule="evenodd" d="M22.7251 106.5C22.8001 106.425 22.8001 106.35 22.8001 106.275C23.0251 105.375 23.7751 104.85 24.6751 105C25.0501 105.075 25.4251 105.225 25.7251 105.525C25.7251 105.6 25.8001 105.6 25.8001 105.675C25.7251 105.75 25.7251 105.75 25.6501 105.75C25.5751 105.75 25.5751 105.825 25.5001 105.825C25.4251 105.75 25.3501 105.75 25.3501 105.675C24.9001 105.225 24.1501 105.225 23.7751 105.525C23.3251 105.825 23.1001 106.2 23.1751 106.725C23.2501 107.25 23.5501 107.7 24.0751 107.775C24.6001 107.925 25.0501 107.775 25.4251 107.475L25.5001 107.4C25.5001 107.4 25.5751 107.4 25.5751 107.325C25.6501 107.4 25.8001 107.4 25.8751 107.55C25.8001 107.7 25.6501 107.85 25.5001 107.925C24.9751 108.225 24.4501 108.3 23.8501 108.15C23.3251 108 22.9501 107.55 22.8751 107.025C22.8751 106.95 22.8751 106.875 22.7251 106.8C22.7251 106.65 22.7251 106.575 22.7251 106.5Z" fill="white"/>
<path fill-rule="evenodd" clip-rule="evenodd" d="M48.6001 72.9C48.7501 72.9 48.9001 72.9 48.9751 72.9V72.975C50.2501 82.425 51.5251 91.875 52.7251 101.325C52.7251 101.4 52.7251 101.475 52.7251 101.475C52.6501 101.475 52.6501 101.475 52.5751 101.475C51.8251 101.475 51.0001 101.475 50.2501 101.475C50.2501 101.475 50.1751 101.475 50.1001 101.475C50.1001 101.4 50.1001 101.4 50.1001 101.325C49.9501 100.425 49.8751 99.525 49.7251 98.55C49.5751 97.575 49.5001 96.6 49.3501 95.625C49.2751 94.8 49.1251 93.975 49.0501 93.15C48.9001 92.175 48.8251 91.2 48.6751 90.225C48.6001 89.4 48.4501 88.575 48.3751 87.75C48.3001 87.075 48.2251 86.4 48.1501 85.725C48.0751 85.05 48.0001 84.375 47.9251 83.7C47.8501 83.025 47.7751 82.35 47.7001 81.675C47.7001 81.45 47.6251 81.3 47.6251 81.075C47.5501 81.15 47.4751 81.225 47.4751 81.3C47.0251 82.2 46.6501 83.175 46.2001 84.075C43.5751 89.775 40.9501 95.475 38.3251 101.175C38.2501 101.25 38.2501 101.4 38.1751 101.475C37.9501 101.475 37.7251 101.475 37.5001 101.475C37.4251 101.4 37.3501 101.325 37.3501 101.175C36.4501 99.225 35.5501 97.35 34.7251 95.4C32.5501 90.675 30.3001 85.875 28.1251 81.15C28.0501 81.075 28.0501 81 27.9751 80.925C27.9001 80.925 27.9001 81 27.9001 81.075C27.8251 81.45 27.8251 81.9 27.7501 82.275C27.6751 82.95 27.6001 83.7 27.4501 84.375C27.3751 85.05 27.3001 85.725 27.2251 86.4C27.1501 87.075 27.0751 87.75 27.0001 88.425C26.9251 89.1 26.8501 89.775 26.7751 90.375C26.7001 91.05 26.6251 91.8 26.4751 92.475C26.4001 93.15 26.3251 93.825 26.2501 94.5C26.1751 95.175 26.1001 95.85 26.0251 96.525C25.9501 97.2 25.8751 97.875 25.8001 98.55C25.7251 99.225 25.6501 99.9 25.5751 100.575C25.5751 100.8 25.5001 101.1 25.5001 101.325C25.2751 101.325 25.0501 101.325 24.9001 101.325C24.6751 101.325 24.4501 101.325 24.2251 101.325C24.0001 101.325 23.7751 101.325 23.6251 101.325C23.4001 101.325 23.1751 101.325 23.0251 101.325C23.0251 101.25 23.0251 101.25 23.0251 101.175C24.3001 91.725 25.5001 82.2 26.7751 72.75C26.9251 72.675 27.0001 72.75 27.1501 72.75C27.2251 72.825 27.3001 72.975 27.3001 73.05C28.0501 74.625 28.7251 76.2 29.4751 77.775C32.2501 83.775 35.0251 89.85 37.8001 95.85C37.8751 95.925 37.8751 96.075 37.9501 96.15C38.0251 96.15 38.1001 96.075 38.1001 96C38.4751 95.1 38.9251 94.275 39.3001 93.375C42.3751 86.625 45.5251 79.8 48.6001 73.05C48.5251 73.05 48.5251 72.975 48.6001 72.9Z" fill="white"/>
<path fill-rule="evenodd" clip-rule="evenodd" d="M40.9501 69.45C39.7501 69.45 38.6251 69.45 37.4251 69.45C34.0501 65.025 30.6751 60.6 27.3001 56.175C26.7751 56.175 26.2501 56.175 25.7251 56.175C25.7251 56.25 25.7251 56.25 25.7251 56.325C25.7251 56.4 25.7251 56.55 25.7251 56.625C25.7251 60.75 25.7251 64.95 25.7251 69.075C25.7251 69.225 25.7251 69.3 25.7251 69.45C25.5001 69.45 23.2501 69.525 22.9501 69.45C22.9501 69.375 22.9501 69.375 22.9501 69.3C22.9501 69.225 22.9501 69.15 22.9501 69.075C22.9501 59.775 22.9501 50.475 22.9501 41.175C22.9501 41.025 22.9501 40.95 22.9501 40.8C23.0251 40.725 23.1751 40.8 23.2501 40.8C24.3001 40.8 25.2751 40.8 26.3251 40.8C27.5251 40.8 28.6501 40.8 29.8501 40.8C30.8251 40.8 31.8001 40.875 32.7751 40.95C33.4501 41.025 34.2001 41.1 34.8751 41.25C35.5501 41.4 36.3001 41.625 36.9001 42C38.5501 42.825 39.6751 44.175 40.2001 45.975C40.5751 47.025 40.6501 48.075 40.5751 49.2C40.5001 49.875 40.4251 50.55 40.2001 51.225C39.6751 52.725 38.7001 53.925 37.3501 54.75C36.5251 55.275 35.5501 55.65 34.5751 55.875C33.4501 56.1 32.3251 56.25 31.1251 56.25C31.0501 56.25 30.9001 56.25 30.8251 56.25C30.8251 56.25 30.8251 56.25 30.7501 56.25C30.7501 56.325 30.8251 56.4 30.9001 56.475C31.9501 57.825 32.9251 59.175 33.9751 60.45C36.2251 63.375 38.4001 66.3 40.6501 69.15C40.8001 69.3 40.8751 69.375 40.9501 69.45ZM25.6501 53.325C25.7251 53.4 25.8751 53.325 25.9501 53.325C27.3001 53.325 28.7251 53.325 30.0751 53.325C30.6751 53.325 31.2001 53.325 31.8001 53.325C32.5501 53.325 33.2251 53.175 33.9001 53.025C34.5001 52.875 35.0251 52.725 35.5501 52.425C36.4501 51.9 37.0501 51.15 37.3501 50.175C37.4251 49.875 37.5001 49.5 37.5751 49.2C37.6501 48.45 37.5751 47.775 37.4251 47.1C37.1251 45.975 36.5251 45.15 35.4751 44.625C35.2501 44.475 35.0251 44.4 34.8001 44.325C34.1251 44.025 33.3751 43.875 32.6251 43.8C31.8751 43.725 31.1251 43.65 30.3751 43.65C29.1751 43.65 28.0501 43.65 26.8501 43.65C26.5501 43.65 26.1751 43.65 25.8751 43.65C25.8001 43.65 25.7251 43.65 25.7251 43.65C25.7251 43.875 25.6501 52.5 25.7251 53.175C25.6501 53.25 25.6501 53.325 25.6501 53.325Z" fill="white"/>
<path fill-rule="evenodd" clip-rule="evenodd" d="M107.85 94.725C107.85 87.45 107.85 80.175 107.85 72.9C107.925 72.9 107.925 72.9 108 72.9C108.825 72.9 109.575 72.9 110.4 72.9H110.475C110.475 72.975 110.475 72.975 110.475 73.05C110.475 73.125 110.475 73.2 110.475 73.275C110.475 82.575 110.475 91.875 110.475 101.175C110.475 101.325 110.475 101.4 110.475 101.55C110.25 101.55 110.1 101.55 109.875 101.55C106.95 97.95 104.025 94.35 101.1 90.75C98.1751 87.15 95.2501 83.55 92.3251 79.95C92.3251 80.025 92.3251 80.1 92.3251 80.1C92.3251 80.175 92.3251 80.325 92.3251 80.4C92.3251 87.3 92.3251 94.2 92.3251 101.175C92.3251 101.325 92.3251 101.4 92.3251 101.55C92.3251 101.55 92.3251 101.625 92.2501 101.625C92.1751 101.625 92.1751 101.625 92.1001 101.625C91.2751 101.625 90.4501 101.625 89.7001 101.625H89.6251V101.55C89.6251 92.1 89.6251 82.575 89.6251 73.125V73.05C89.7751 73.05 90.0001 73.05 90.2251 73.05C90.9001 73.875 91.5001 74.625 92.1751 75.45C92.8501 76.275 93.4501 77.1 94.1251 77.85C94.8001 78.675 95.4751 79.5 96.0751 80.325C96.7501 81.15 97.3501 81.975 98.0251 82.725C98.7001 83.55 99.3751 84.375 99.9751 85.2C100.65 86.025 101.25 86.85 101.925 87.6C102.6 88.425 103.275 89.25 103.875 90.075C104.55 90.9 105.15 91.725 105.825 92.475C106.425 93.15 107.1 93.9 107.85 94.725C107.775 94.725 107.775 94.725 107.85 94.725Z" fill="white"/>
<path fill-rule="evenodd" clip-rule="evenodd" d="M102.15 45.3C101.325 45.825 100.575 46.35 99.8251 46.875C99.7501 46.875 99.7501 46.95 99.6751 46.95C99.6001 46.875 99.5251 46.8 99.4501 46.725C98.8501 45.975 98.1001 45.375 97.3501 44.775C96.6001 44.175 95.7001 43.8 94.7251 43.725C93.9751 43.65 93.2251 43.65 92.4751 43.875C91.8001 44.025 91.2001 44.325 90.6751 44.85C89.9251 45.525 89.6251 46.35 89.6251 47.325C89.6251 48.3 90.0001 49.2 90.7501 49.875C91.0501 50.175 91.4251 50.475 91.8001 50.775C92.8501 51.6 93.9751 52.35 95.1001 53.1C96.0001 53.7 96.9001 54.3 97.8001 54.975C98.7001 55.65 99.5251 56.325 100.275 57.075C100.725 57.525 101.175 57.975 101.475 58.5C102 59.25 102.375 60 102.525 60.9C102.825 62.475 102.6 63.9 101.775 65.25C101.4 65.925 100.875 66.525 100.275 67.05C99.0751 68.175 97.6501 68.85 96.0751 69.225C95.3251 69.375 94.5751 69.45 93.8251 69.45C92.6251 69.45 91.5001 69.3 90.3751 68.925C88.9501 68.475 87.7501 67.65 86.7001 66.675C85.8751 65.85 85.1251 64.95 84.5251 63.9C84.5251 63.9 84.5251 63.825 84.4501 63.825C85.2751 63.375 86.1001 63 86.9251 62.55H87.0001C87.0751 62.625 87.1501 62.7 87.2251 62.775C87.6001 63.375 88.0501 63.975 88.5751 64.575C89.0251 65.1 89.5501 65.55 90.1501 65.925C90.9001 66.45 91.6501 66.75 92.5501 66.9C93.0001 66.975 93.3751 66.975 93.8251 66.975C94.6501 66.975 95.4751 66.825 96.2251 66.45C96.9001 66.15 97.5001 65.775 98.0251 65.25C98.5501 64.725 99.0001 64.125 99.1501 63.375C99.3751 62.55 99.3001 61.65 98.9251 60.9C98.6251 60.3 98.2501 59.775 97.8751 59.25C97.4251 58.725 96.9001 58.275 96.3751 57.825C95.4001 57 94.3501 56.25 93.3001 55.575C92.2501 54.9 91.2001 54.225 90.2251 53.475C89.7751 53.175 89.3251 52.8 88.8751 52.425C88.4251 52.05 87.9751 51.6 87.6751 51.15C87.0001 50.25 86.6251 49.275 86.4751 48.225C86.2501 46.5 86.7001 44.925 87.9001 43.575C88.9501 42.45 90.2251 41.7 91.7251 41.325C92.7751 41.1 93.9001 41.025 95.0251 41.175C95.9251 41.25 96.7501 41.475 97.5751 41.85C98.2501 42.15 98.7751 42.525 99.3751 42.9C100.35 43.65 101.25 44.55 102 45.525C102.075 45.225 102.075 45.225 102.15 45.3Z" fill="white"/>
<path fill-rule="evenodd" clip-rule="evenodd" d="M46.5001 105.675C46.5751 105.6 46.6501 105.525 46.7251 105.375C47.0251 105.075 47.4751 104.925 47.9251 105.075C48.2251 105.15 48.4501 105.375 48.5251 105.675C48.5251 105.825 48.6001 105.9 48.6001 106.05C48.6001 106.725 48.6001 107.325 48.6001 108V108.075C48.5251 108.075 48.3751 108.075 48.3001 108.075C48.2251 108 48.2251 107.85 48.2251 107.775C48.2251 107.325 48.2251 106.875 48.2251 106.425C48.2251 106.275 48.2251 106.125 48.2251 106.05C48.2251 105.45 47.7001 105.3 47.2501 105.45C46.8751 105.6 46.7251 105.825 46.6501 106.2C46.6501 106.425 46.5751 106.65 46.5751 106.875C46.5751 107.175 46.5751 107.55 46.5751 107.85C46.5751 107.925 46.5751 108 46.5751 108.075C46.5001 108.075 46.5001 108.075 46.4251 108.075C46.3501 108.075 46.3501 108.075 46.2751 108.075C46.2751 108 46.2751 107.925 46.2751 107.85C46.2751 107.475 46.2751 107.025 46.2751 106.65C46.2751 106.425 46.2751 106.2 46.2751 105.975C46.2751 105.675 46.0501 105.45 45.7501 105.375C45.5251 105.375 45.3751 105.375 45.1501 105.45C44.8501 105.6 44.7001 105.825 44.6251 106.125C44.6251 106.35 44.5501 106.5 44.5501 106.725C44.5501 107.1 44.5501 107.4 44.5501 107.775C44.5501 107.85 44.5501 107.925 44.5501 108C44.4751 108 44.4001 108 44.3251 108C44.2501 108 44.2501 108 44.1751 108C44.1751 107.925 44.1751 107.85 44.1751 107.85C44.1751 106.95 44.1751 105.375 44.1751 105.075C44.3251 105 44.3251 105 44.4751 105.075C44.5501 105.225 44.4751 105.3 44.5501 105.45C44.6251 105.45 44.6251 105.375 44.7001 105.375C44.8501 105.225 45.0751 105.075 45.3001 105C45.6751 104.925 46.2001 105.075 46.4251 105.525C46.4251 105.6 46.4251 105.6 46.5001 105.675Z" fill="white"/>
<path fill-rule="evenodd" clip-rule="evenodd" d="M59.1751 106.65C58.9501 106.725 58.7251 106.65 58.5001 106.65C58.2751 106.65 58.0501 106.65 57.8251 106.65C57.6001 106.65 57.3751 106.65 57.1501 106.65C56.9251 106.65 56.7001 106.65 56.4751 106.65C56.4751 106.725 56.4751 106.725 56.4751 106.8C56.5501 107.25 56.7751 107.625 57.2251 107.775C57.6751 107.925 58.1251 107.85 58.5001 107.55C58.5751 107.475 58.7251 107.325 58.8001 107.175C58.9501 107.175 59.0251 107.25 59.1001 107.325C58.9501 107.625 58.7251 107.925 58.4251 108.075C57.6751 108.45 56.5501 108.225 56.1751 107.1C56.0251 106.575 56.1001 106.05 56.4751 105.6C56.9251 105.075 57.4501 104.925 58.0501 105.075C58.6501 105.225 59.0251 105.6 59.1751 106.275C59.1751 106.35 59.1751 106.425 59.2501 106.575C59.1751 106.575 59.1751 106.575 59.1751 106.65ZM58.7251 106.275C58.6501 105.675 58.1251 105.3 57.5251 105.375C57.0001 105.375 56.5501 105.825 56.6251 106.275C57.3001 106.275 57.9751 106.275 58.7251 106.275Z" fill="white"/>
<path fill-rule="evenodd" clip-rule="evenodd" d="M107.325 107.1C107.475 107.175 107.55 107.175 107.625 107.25C107.475 107.625 107.175 107.85 106.875 108C106.35 108.225 105.825 108.225 105.3 107.85C104.775 107.475 104.625 106.95 104.625 106.35C104.625 105.975 104.85 105.6 105.075 105.375C105.525 104.925 106.05 104.85 106.575 105C107.1 105.15 107.475 105.525 107.625 106.125C107.625 106.275 107.7 106.425 107.7 106.5C107.625 106.575 107.55 106.575 107.475 106.575C106.725 106.575 106.05 106.575 105.3 106.575C105.225 106.575 105.15 106.575 105 106.575C104.925 107.025 105.225 107.475 105.675 107.7C105.975 107.85 106.275 107.775 106.575 107.7C106.95 107.625 107.175 107.4 107.325 107.1ZM105.15 106.275C105.225 106.275 105.3 106.275 105.3 106.275C105.975 106.275 106.575 106.275 107.25 106.275C107.175 105.75 106.8 105.45 106.2 105.375C105.675 105.375 105.225 105.675 105.15 106.275Z" fill="white"/>
<path fill-rule="evenodd" clip-rule="evenodd" d="M36.0001 105.6C36.0001 105.375 36.0001 105.3 36.0001 105.15C36.1501 105.075 36.2251 105.075 36.3751 105.15C36.3751 105.225 36.3751 105.225 36.3751 105.3C36.3751 106.2 36.3751 107.1 36.3751 108C36.3751 108 36.3751 108.075 36.3751 108.15C36.2251 108.225 36.1501 108.15 36.0751 108.15C36.0001 108 36.0751 107.85 36.0001 107.775C35.9251 107.775 35.9251 107.775 35.8501 107.85C35.7751 107.925 35.7751 107.925 35.7001 108C35.1001 108.525 34.3501 108.45 33.8251 108.075C33.0001 107.4 33.0001 106.2 33.7501 105.6C34.3501 105.075 35.2501 105.075 35.7751 105.6C35.8501 105.45 35.9251 105.525 36.0001 105.6ZM33.6751 106.65C33.6751 106.65 33.6751 106.725 33.6751 106.8C33.7501 107.25 33.9751 107.625 34.4251 107.775C34.8751 107.925 35.2501 107.85 35.6251 107.55C35.9251 107.25 36.0751 106.875 36.0001 106.425C35.9251 105.675 35.1751 105.225 34.5001 105.45C33.9751 105.6 33.6751 106.05 33.6751 106.65Z" fill="white"/>
<path fill-rule="evenodd" clip-rule="evenodd" d="M77.8501 105.525C77.8501 105.45 77.8501 105.375 77.8501 105.3C77.8501 105.225 77.8501 105.15 77.8501 105.075C78.0001 105 78.0001 105 78.2251 105.075C78.2251 105.15 78.2251 105.15 78.2251 105.225C78.2251 106.125 78.2251 107.1 78.2251 108C78.0751 108.075 78.0001 108.075 77.8501 108C77.7751 107.85 77.8501 107.7 77.7751 107.55C77.7001 107.625 77.7001 107.625 77.6251 107.7C77.1751 108.15 76.5751 108.225 76.0501 108C75.4501 107.775 75.1501 107.25 75.0751 106.65C75.0751 106.125 75.2251 105.675 75.6001 105.3C76.2001 104.775 77.1001 104.775 77.6251 105.3C77.7001 105.45 77.7751 105.525 77.8501 105.525ZM76.7251 105.375C76.3501 105.375 76.0501 105.525 75.8251 105.75C75.5251 106.05 75.4501 106.425 75.5251 106.8C75.6001 107.25 75.9001 107.55 76.2751 107.775C76.7251 107.925 77.1001 107.85 77.4751 107.55C77.7751 107.25 77.9251 106.875 77.8501 106.5C77.8501 105.9 77.3251 105.375 76.7251 105.375Z" fill="white"/>
<path fill-rule="evenodd" clip-rule="evenodd" d="M117.9 105.6C117.9 105.375 117.9 105.3 117.9 105.15C117.975 105.075 118.125 105.15 118.2 105.15C118.2 105.225 118.2 105.225 118.2 105.3C118.2 106.2 118.2 107.1 118.2 108V108.075C118.125 108.15 117.975 108.075 117.825 108.075C117.825 107.925 117.825 107.775 117.825 107.7C117.75 107.7 117.75 107.7 117.675 107.775C117.6 107.85 117.6 107.85 117.525 107.925C117 108.375 116.175 108.3 115.725 108C114.825 107.325 114.825 106.05 115.65 105.375C116.175 104.925 117.075 104.925 117.6 105.45C117.75 105.45 117.825 105.525 117.9 105.6ZM116.775 105.375C116.7 105.375 116.625 105.375 116.55 105.375C116.475 105.375 116.475 105.375 116.4 105.375C115.8 105.6 115.425 106.275 115.575 106.875C115.725 107.325 116.025 107.625 116.475 107.775C116.925 107.85 117.3 107.7 117.6 107.325C117.825 107.1 117.825 106.8 117.825 106.5C117.9 105.9 117.375 105.375 116.775 105.375Z" fill="white"/>
<path fill-rule="evenodd" clip-rule="evenodd" d="M126.225 108.075C126.075 108.075 126 108.075 125.85 108.075C125.85 108 125.85 108 125.85 108C125.85 107.1 125.85 106.125 125.85 105.225V105.15C126 105.075 126.075 105.15 126.225 105.15C126.225 105.225 126.225 105.375 126.225 105.45C126.3 105.45 126.3 105.45 126.3 105.375L126.375 105.3C126.6 105.075 126.825 105 127.125 105.225C127.125 105.3 127.05 105.45 126.975 105.525H126.9C126.675 105.45 126.45 105.6 126.375 105.825C126.225 106.05 126.15 106.275 126.15 106.5C126.15 106.95 126.15 107.4 126.15 107.925C126.225 107.85 126.225 107.925 126.225 108.075Z" fill="white"/>
<path fill-rule="evenodd" clip-rule="evenodd" d="M66.9751 105.45C67.1251 105.3 67.2001 105.225 67.2751 105.15C67.5001 104.925 67.7251 104.925 68.0251 105.15C67.9501 105.225 67.9501 105.3 67.8751 105.375H67.8001C67.5751 105.3 67.4251 105.45 67.2751 105.6C67.1251 105.825 67.0501 105.975 67.0501 106.275C67.0501 106.725 67.0501 107.175 66.9751 107.7C66.9751 107.85 66.9751 107.925 66.9751 108.075C66.8251 108.15 66.7501 108.15 66.6001 108.075C66.6001 108 66.6001 108 66.6001 107.925C66.6001 107.25 66.6001 105.375 66.6001 105.15C66.7501 105.075 66.7501 105.075 66.9751 105.15C66.9751 105.225 66.9751 105.225 66.9751 105.3C66.9751 105.3 66.9751 105.375 66.9751 105.45Z" fill="white"/>
</svg>
