<svg width="150" height="45" viewBox="0 0 150 45" fill="none" xmlns="http://www.w3.org/2000/svg">
<g clip-path="url(#clip0)">
<path fill-rule="evenodd" clip-rule="evenodd" d="M30.6188 10.0529C29.8309 10.1604 29.084 10.2883 28.3575 10.3497C26.9762 10.4571 25.5898 10.5134 24.2034 10.6157C23.9052 10.6376 23.6058 10.5956 23.3252 10.4923C23.0446 10.3891 22.7893 10.2271 22.5765 10.0171C20.851 8.4663 18.5924 7.64316 16.2736 7.72006C14.9569 7.71887 13.6537 7.98521 12.4431 8.5029C11.2324 9.02059 10.1396 9.77885 9.23085 10.7317C8.32211 11.6845 7.61642 12.812 7.15659 14.0458C6.69677 15.2796 6.4924 16.5939 6.55588 17.9091C6.61937 19.2242 6.94938 20.5128 7.52591 21.6965C8.10243 22.8803 8.91345 23.9346 9.90974 24.7954C10.906 25.6563 12.0668 26.3057 13.3217 26.7044C14.5766 27.1031 15.8994 27.2427 17.2098 27.1147C18.5294 27.0484 19.8172 26.6873 20.9788 26.0578C22.1404 25.4284 23.1461 24.5465 23.922 23.4772C24.1842 23.094 24.5192 22.7662 24.9081 22.5125C25.297 22.2588 25.732 22.0842 26.1884 21.9987C27.9841 21.6252 29.7695 21.2467 31.5755 20.8834C31.8076 20.8674 32.0409 20.876 32.2712 20.909C32.0475 22.1078 31.6421 23.2654 31.069 24.3418C29.7259 27.0691 28.1728 29.6879 26.4237 32.1744C26.1321 32.6092 18.0847 42.5239 16.468 44.3964C16.197 44.1727 15.939 43.9335 15.6955 43.6801C13.2808 40.7606 10.8678 37.8428 8.45644 34.9267C8.03181 34.4151 6.37936 32.1283 6.05705 31.6628C4.25835 29.1191 2.69494 26.4169 1.38618 23.5898C-0.859726 18.5864 -0.317434 13.762 2.55774 9.2088C3.79509 7.20176 5.46439 5.49586 7.44412 4.21527C9.42386 2.93468 11.6642 2.11162 14.0021 1.80601C17.2509 1.31379 20.5725 1.81493 23.5314 3.24371C26.4903 4.67249 28.9483 6.96218 30.583 9.81248C30.6011 9.8916 30.613 9.97198 30.6188 10.0529Z" fill="white"/>
<path fill-rule="evenodd" clip-rule="evenodd" d="M15.4756 17.3431C16.6421 16.7599 17.742 16.0027 19.0568 15.8083C21.3078 15.44 23.5742 15.1279 25.8457 14.9233C28.3474 14.7033 30.8593 14.5345 33.3662 14.5242C35.5017 14.4448 37.6356 14.7232 39.6793 15.3479C40.4619 15.5818 41.1681 16.0197 41.7256 16.6167C41.1475 16.7701 40.7434 16.9134 40.329 16.9799C37.3451 17.5345 34.332 17.9188 31.3044 18.131C30.971 18.1641 30.6457 18.2541 30.3426 18.397C25.1053 20.4471 19.683 21.9889 14.1506 23.0014C13.4497 23.1293 12.7386 23.2111 12.0326 23.2725C11.636 23.2794 11.2395 23.2588 10.8457 23.2111C11.1987 22.3977 11.8382 22.321 12.3805 22.1419C14.0125 21.574 15.6701 21.1187 17.2867 20.4997C19.5326 19.676 21.758 18.7807 24.2342 17.8189C23.3235 17.5836 22.6994 17.3636 22.019 17.2613C21.6141 17.2118 21.2033 17.2448 20.8116 17.3585C19.727 17.6552 18.668 18.0389 17.5783 18.3203C16.4886 18.6017 16.0896 18.3561 15.4756 17.3431Z" fill="black"/>
<path fill-rule="evenodd" clip-rule="evenodd" d="M18.1613 15.1893L18.8366 14.1303L16.8823 11.1425C17.4293 10.9152 17.9918 10.7271 18.5655 10.5798C18.8522 10.5697 19.1314 10.6726 19.3431 10.8663C19.7933 11.2551 20.1975 11.7053 20.6119 12.1401C20.918 12.4697 21.292 12.7291 21.7079 12.9004C22.1239 13.0718 22.572 13.151 23.0215 13.1326C24.2902 13.0968 25.5795 13.0047 26.8226 12.8564C28.9406 12.6108 31.0535 12.3039 33.1664 12.0225C34.8291 11.8025 36.4918 11.5569 38.1647 11.383C39.5827 11.2134 41.0203 11.3335 42.3905 11.736C43.4354 12.0625 44.3538 12.704 45.0201 13.5726C45.6801 14.3963 45.6136 14.8465 44.7438 15.4092C44.3543 15.6335 43.9529 15.8367 43.5416 16.018C41.6129 14.3247 39.2698 13.9154 36.8346 13.7619C35.6824 13.6413 34.5243 13.5866 33.366 13.5982C30.9768 13.7261 28.5876 13.9103 26.2036 14.1916C23.6814 14.4833 21.1746 14.913 18.6576 15.2762C18.4891 15.2687 18.3223 15.2395 18.1613 15.1893V15.1893Z" fill="white"/>
<path fill-rule="evenodd" clip-rule="evenodd" d="M38.7632 10.5594C39.5306 10.0989 40.298 9.66407 41.05 9.17805C43.0094 7.92464 44.9433 6.62007 46.9027 5.39224C47.5729 4.9625 48.2072 4.36904 49.3072 4.53787C49.0463 4.97784 48.8723 5.33085 48.6421 5.64292C47.1829 7.55055 45.4918 9.26909 43.608 10.7589C43.4778 10.8922 43.3137 10.9874 43.1334 11.0343C42.9531 11.0812 42.7634 11.0779 42.5848 11.0249C41.3603 10.6636 40.0713 10.5762 38.8092 10.7691C38.8041 10.7077 38.7836 10.6361 38.7632 10.5594Z" fill="black"/>
<path d="M54.4847 0.301824H54.5922L57.0529 6.44098H56.6795L56.2139 5.26431H52.863L52.3974 6.44098H52.0342L54.4847 0.301824ZM56.0809 4.93689L54.7405 1.4785C54.6536 1.26363 54.5615 0.925972 54.5615 0.925972C54.5132 1.11306 54.4551 1.29749 54.3875 1.4785L53.0113 4.93689H56.0809Z" fill="black"/>
<path d="M61.1967 2.79841V3.09514H60.3679C60.4934 3.20643 60.5932 3.34369 60.6604 3.49741C60.7275 3.65113 60.7604 3.81761 60.7568 3.98531C60.7572 4.16018 60.7216 4.33325 60.6522 4.49376C60.5828 4.65427 60.4811 4.79878 60.3534 4.91828C60.2258 5.03778 60.0749 5.12972 59.9101 5.18837C59.7454 5.24702 59.5704 5.27113 59.3959 5.25919C59.1448 5.26762 58.8959 5.20937 58.6746 5.09036C58.5609 5.09425 58.4531 5.14147 58.3732 5.22233C58.2933 5.30319 58.2474 5.41156 58.2448 5.52522C58.2448 5.80148 58.4392 5.93449 58.7564 5.96519L59.6978 6.05216C60.7516 6.14936 61.2325 6.47167 61.2325 7.15721C61.2325 7.96041 60.4242 8.42597 59.3345 8.42597C58.2448 8.42597 57.5184 7.98599 57.5184 7.22883C57.5184 6.67631 57.9072 6.37447 58.4597 6.20564C58.3127 6.17271 58.1815 6.0901 58.0884 5.97175C57.9952 5.8534 57.9456 5.70653 57.9481 5.55591C57.9507 5.40776 58.0023 5.26464 58.0948 5.14893C58.1874 5.03323 58.3157 4.95146 58.4597 4.91642C58.3226 4.80243 58.2128 4.65915 58.1385 4.49713C58.0641 4.3351 58.027 4.15845 58.0299 3.9802C58.0322 3.80366 58.0707 3.62946 58.143 3.4684C58.2153 3.30735 58.32 3.16286 58.4504 3.04391C58.5809 2.92495 58.7344 2.83406 58.9015 2.77687C59.0685 2.71968 59.2455 2.69741 59.4215 2.71144C59.5954 2.71031 59.7682 2.73797 59.9331 2.79329L61.1967 2.79841ZM57.8918 7.2186C57.8918 7.80182 58.4034 8.11901 59.3499 8.11901C60.2963 8.11901 60.8847 7.79159 60.8847 7.15721C60.8847 6.64561 60.6084 6.43586 59.6671 6.36423L58.8997 6.31308C58.3113 6.42563 57.8765 6.70189 57.8765 7.2186H57.8918ZM60.4344 3.98531C60.4344 3.71395 60.3266 3.45369 60.1348 3.26181C59.9429 3.06992 59.6826 2.96212 59.4113 2.96212C59.1399 2.96212 58.8796 3.06992 58.6878 3.26181C58.4959 3.45369 58.3881 3.71395 58.3881 3.98531C58.3881 4.25668 58.4959 4.51693 58.6878 4.70882C58.8796 4.9007 59.1399 5.0085 59.4113 5.0085C59.6826 5.0085 59.9429 4.9007 60.1348 4.70882C60.3266 4.51693 60.4344 4.25668 60.4344 3.98531Z" fill="black"/>
<path d="M63.7035 6.19545C63.9448 6.20731 64.1854 6.16206 64.4059 6.06339C64.6264 5.96471 64.8204 5.81539 64.9723 5.62758L65.2025 5.83222C65.0213 6.05393 64.7912 6.23071 64.5302 6.34875C64.2693 6.46678 63.9846 6.52288 63.6984 6.51264C63.446 6.52128 63.1945 6.47776 62.9596 6.38478C62.7247 6.2918 62.5116 6.15138 62.3334 5.97228C62.1553 5.79319 62.016 5.57927 61.9243 5.34391C61.8326 5.10854 61.7904 4.85679 61.8004 4.60439C61.7943 4.3588 61.837 4.11444 61.926 3.88547C62.0149 3.65649 62.1485 3.44744 62.3188 3.27043C62.4892 3.09342 62.6929 2.95197 62.9183 2.85427C63.1437 2.75657 63.3863 2.70456 63.6319 2.70125C63.8828 2.70055 64.131 2.75273 64.3603 2.85437C64.5897 2.95601 64.795 3.10484 64.963 3.29116C65.131 3.47747 65.2578 3.6971 65.3352 3.93571C65.4126 4.17432 65.4389 4.42657 65.4123 4.67601H62.1585C62.1526 4.87775 62.1885 5.07853 62.264 5.26572C62.3394 5.45291 62.4528 5.62247 62.597 5.76373C62.7411 5.905 62.9129 6.01491 63.1016 6.08657C63.2903 6.15822 63.4917 6.19007 63.6933 6.1801L63.7035 6.19545ZM65.0439 4.38952C65.0462 4.20401 65.0106 4.02 64.9394 3.84869C64.8682 3.67739 64.7628 3.52238 64.6297 3.39313C64.4967 3.26388 64.3386 3.16309 64.1653 3.09691C63.992 3.03073 63.8071 3.00055 63.6217 3.00821C63.2463 3.00383 62.8839 3.14543 62.6109 3.40314C62.338 3.66085 62.1757 4.01451 62.1585 4.38952H65.0439Z" fill="black"/>
<path d="M66.5992 2.79845H66.9471V3.61189C67.0616 3.33966 67.2558 3.10844 67.5041 2.94865C67.7525 2.78885 68.0434 2.70796 68.3386 2.7166C68.5265 2.70977 68.7136 2.7433 68.8874 2.81494C69.0612 2.88657 69.2176 2.99464 69.3461 3.13185C69.4746 3.26906 69.5722 3.43223 69.6322 3.61036C69.6923 3.78848 69.7135 3.97741 69.6943 4.16442V6.4359H69.3465V4.22581C69.3465 3.47888 68.9986 3.03891 68.2926 3.03891C68.1119 3.02887 67.9313 3.05758 67.7626 3.1231C67.594 3.18862 67.4414 3.28945 67.3149 3.41881C67.1884 3.54818 67.0911 3.70309 67.0294 3.87316C66.9678 4.04322 66.9432 4.22451 66.9573 4.40487V6.45125H66.6094L66.5992 2.79845Z" fill="black"/>
<path d="M70.8507 4.60434C70.8459 4.35783 70.89 4.11283 70.9805 3.88347C71.0709 3.6541 71.2059 3.44492 71.3776 3.26798C71.5493 3.09105 71.7543 2.94987 71.9809 2.85259C72.2074 2.75531 72.451 2.70386 72.6975 2.7012C72.96 2.69056 73.2213 2.74092 73.461 2.84834C73.7006 2.95575 73.9121 3.11728 74.0788 3.32023L73.8282 3.52487C73.6952 3.35445 73.5228 3.21886 73.3259 3.12974C73.129 3.04063 72.9133 3.00066 72.6975 3.01327C72.4931 3.01197 72.2906 3.05308 72.1029 3.13401C71.9151 3.21493 71.7462 3.33392 71.6068 3.48344C71.4674 3.63296 71.3605 3.80977 71.2928 4.0027C71.2252 4.19563 71.1983 4.40049 71.2139 4.60434C71.1998 4.80712 71.2278 5.01064 71.2961 5.20208C71.3645 5.39353 71.4717 5.56876 71.611 5.71675C71.7504 5.86475 71.9188 5.98231 72.1058 6.06205C72.2928 6.14178 72.4943 6.18196 72.6975 6.18005C72.9267 6.19217 73.1554 6.14926 73.3645 6.05492C73.5737 5.96057 73.7572 5.81754 73.8998 5.63776L74.1505 5.8424C73.9772 6.05818 73.755 6.22964 73.5024 6.34261C73.2498 6.45559 72.9739 6.50684 72.6975 6.49213C72.4519 6.49081 72.209 6.44078 71.9828 6.34493C71.7567 6.24909 71.5518 6.10933 71.38 5.93376C71.2083 5.75818 71.073 5.55028 70.9822 5.32208C70.8913 5.09388 70.8466 4.84993 70.8507 4.60434Z" fill="black"/>
<path d="M76.8823 6.19545C77.1257 6.20835 77.3686 6.1631 77.591 6.06347C77.8134 5.96383 78.0089 5.81266 78.1613 5.62246L78.3915 5.8271C78.2095 6.04921 77.9785 6.2262 77.7167 6.34424C77.4549 6.46228 77.1693 6.51816 76.8823 6.50752C76.6303 6.51612 76.3792 6.47274 76.1447 6.38007C75.9102 6.28741 75.6973 6.14745 75.5193 5.96891C75.3412 5.79037 75.2018 5.57708 75.1098 5.34232C75.0177 5.10756 74.975 4.85637 74.9843 4.60439C74.9782 4.35922 75.0207 4.11528 75.1094 3.88663C75.198 3.65799 75.3311 3.44917 75.5009 3.27223C75.6707 3.09529 75.8739 2.95373 76.0987 2.85573C76.3235 2.75773 76.5655 2.70523 76.8107 2.70125C77.0617 2.70063 77.3101 2.75282 77.5397 2.85441C77.7693 2.956 77.9749 3.10473 78.1433 3.29095C78.3116 3.47717 78.439 3.69671 78.517 3.93532C78.595 4.17394 78.622 4.42629 78.5962 4.67601H75.3424C75.3358 4.87795 75.3711 5.07908 75.4463 5.26663C75.5215 5.45418 75.6348 5.62405 75.7791 5.76547C75.9235 5.9069 76.0956 6.01678 76.2846 6.08816C76.4736 6.15954 76.6754 6.19085 76.8772 6.1801L76.8823 6.19545ZM78.2329 4.38952C78.2352 4.20356 78.1995 4.0191 78.128 3.84744C78.0565 3.67578 77.9506 3.52053 77.817 3.3912C77.6834 3.26187 77.5247 3.1612 77.3508 3.09534C77.1769 3.02948 76.9914 2.99983 76.8056 3.00821C76.4307 3.00388 76.0689 3.14565 75.7967 3.40348C75.5246 3.66131 75.3635 4.01496 75.3475 4.38952H78.2329Z" fill="black"/>
<path d="M81.277 4.60437C81.2652 4.36042 81.3031 4.11663 81.3882 3.88772C81.4734 3.65882 81.6041 3.44957 81.7724 3.27263C81.9407 3.09568 82.1432 2.95472 82.3676 2.85826C82.592 2.76181 82.8336 2.71187 83.0778 2.71146C83.3974 2.70553 83.712 2.79159 83.9841 2.95939C84.2562 3.12719 84.4744 3.36965 84.6126 3.65791V0H84.9605V6.43588H84.6126V5.52524C84.4732 5.82065 84.2522 6.07006 83.9757 6.24408C83.6993 6.41811 83.3789 6.5095 83.0522 6.5075C82.8092 6.50373 82.5695 6.45095 82.3474 6.35235C82.1254 6.25374 81.9254 6.11132 81.7597 5.93363C81.5939 5.75594 81.4658 5.54662 81.3828 5.31821C81.2999 5.08981 81.2639 4.84701 81.277 4.60437ZM84.6484 4.60437C84.6606 4.3975 84.6295 4.19038 84.5573 3.99615C84.4851 3.80192 84.3733 3.62484 84.2289 3.47617C84.0846 3.32749 83.9109 3.21047 83.7189 3.13255C83.5269 3.05462 83.3207 3.0175 83.1136 3.02353C82.9107 3.02217 82.7098 3.06301 82.5235 3.14347C82.3372 3.22394 82.1698 3.34226 82.0317 3.49092C81.8936 3.63958 81.7879 3.81534 81.7214 4.00702C81.6549 4.19871 81.629 4.40213 81.6453 4.60437C81.629 4.80771 81.6552 5.01223 81.7222 5.20489C81.7893 5.39755 81.8958 5.57411 82.0349 5.72333C82.174 5.87254 82.3427 5.99113 82.5302 6.07154C82.7177 6.15194 82.9199 6.19239 83.1238 6.19031C83.3312 6.19562 83.5374 6.15783 83.7295 6.07933C83.9215 6.00082 84.0951 5.88332 84.2394 5.73425C84.3836 5.58518 84.4954 5.40779 84.5676 5.2133C84.6397 5.01881 84.6707 4.81146 84.6586 4.60437" fill="black"/>
<path d="M88.0916 6.19545C88.3336 6.20813 88.5753 6.16328 88.7967 6.06457C89.0181 5.96587 89.213 5.81611 89.3654 5.62758L89.5956 5.83222C89.4144 6.05393 89.1843 6.23071 88.9234 6.34875C88.6624 6.46678 88.3778 6.52288 88.0916 6.51264C87.8387 6.522 87.5866 6.47901 87.3511 6.38636C87.1156 6.2937 86.9019 6.15339 86.7232 5.97422C86.5445 5.79505 86.4047 5.58088 86.3127 5.34516C86.2207 5.10943 86.1784 4.85724 86.1884 4.60439C86.1823 4.3588 86.225 4.11444 86.314 3.88547C86.403 3.65649 86.5365 3.44744 86.7068 3.27043C86.8772 3.09342 87.0809 2.95197 87.3063 2.85427C87.5317 2.75657 87.7743 2.70456 88.0199 2.70125C88.2708 2.70055 88.519 2.75273 88.7483 2.85437C88.9777 2.95601 89.183 3.10484 89.351 3.29116C89.519 3.47747 89.6458 3.6971 89.7232 3.93571C89.8006 4.17432 89.8269 4.42657 89.8003 4.67601H86.5465C86.5406 4.87775 86.5766 5.07853 86.652 5.26572C86.7275 5.45291 86.8408 5.62247 86.985 5.76373C87.1291 5.905 87.3009 6.01491 87.4896 6.08657C87.6783 6.15822 87.8797 6.19007 88.0813 6.1801L88.0916 6.19545ZM89.4319 4.38952C89.4342 4.20401 89.3986 4.02 89.3274 3.84869C89.2562 3.67739 89.1508 3.52238 89.0178 3.39313C88.8847 3.26388 88.7267 3.16309 88.5533 3.09691C88.38 3.03073 88.1951 3.00055 88.0097 3.00821C87.6343 3.00383 87.2719 3.14543 86.9989 3.40314C86.726 3.66085 86.5638 4.01451 86.5465 4.38952H89.4319Z" fill="black"/>
<path d="M92.3069 2.79842H92.6804L93.8826 5.52522C93.9464 5.67703 94.001 5.83249 94.0463 5.99078C94.0833 5.8319 94.1329 5.67622 94.1947 5.52522L95.3714 2.79842H95.7295L94.0872 6.50749H93.9798L92.3069 2.79842Z" fill="black"/>
<path d="M96.3894 4.60438C96.3915 4.23189 96.5036 3.86832 96.7119 3.55945C96.9201 3.25058 97.215 3.0102 97.5595 2.86859C97.904 2.72698 98.2828 2.69046 98.648 2.76362C99.0133 2.83679 99.3487 3.01638 99.6121 3.27977C99.8755 3.54316 100.055 3.87859 100.128 4.24383C100.201 4.60907 100.165 4.9878 100.023 5.33232C99.8816 5.67685 99.6413 5.97178 99.3324 6.17999C99.0235 6.3882 98.66 6.50038 98.2875 6.5024C98.0378 6.50376 97.7904 6.45559 97.5595 6.36069C97.3286 6.26578 97.1189 6.12603 96.9423 5.94951C96.7658 5.77299 96.6261 5.56321 96.5312 5.33232C96.4363 5.10143 96.3881 4.85401 96.3894 4.60438ZM99.812 4.60438C99.8242 4.39752 99.7932 4.19039 99.7209 3.99616C99.6487 3.80193 99.5369 3.62485 99.3925 3.47618C99.2482 3.3275 99.0745 3.21049 98.8825 3.13256C98.6905 3.05464 98.4844 3.01751 98.2772 3.02355C98.0717 3.02345 97.8683 3.06463 97.6791 3.14462C97.4898 3.22461 97.3185 3.3418 97.1754 3.48923C97.0322 3.63666 96.9202 3.81133 96.8458 4.00289C96.7714 4.19445 96.7363 4.39899 96.7424 4.60438C96.7356 4.81019 96.7702 5.01529 96.8443 5.20744C96.9183 5.39959 97.0303 5.57488 97.1735 5.72286C97.3167 5.87085 97.4882 5.98849 97.6778 6.0688C97.8675 6.14911 98.0713 6.19044 98.2772 6.19033C98.4846 6.19564 98.6908 6.15784 98.8828 6.07934C99.0749 6.00084 99.2485 5.88333 99.3928 5.73426C99.537 5.58519 99.6488 5.4078 99.7209 5.21331C99.7931 5.01882 99.8241 4.81147 99.812 4.60438Z" fill="black"/>
<path d="M102.442 6.16984L100.825 2.79842H101.204L102.478 5.48941C102.534 5.62968 102.582 5.77318 102.621 5.91915C102.652 5.77205 102.696 5.62817 102.754 5.48941L103.905 2.79842H104.258L101.879 8.32366H101.521L102.442 6.16984Z" fill="black"/>
<path d="M107.568 4.15415C107.568 3.3356 107.189 3.02352 106.596 3.02352C106.357 3.00884 106.119 3.05911 105.906 3.169C105.694 3.27889 105.515 3.4443 105.389 3.64767L105.138 3.46861C105.293 3.22946 105.507 3.03451 105.76 2.90274C106.013 2.77096 106.296 2.70682 106.581 2.71657C106.764 2.70535 106.947 2.73467 107.118 2.80242C107.288 2.87017 107.442 2.97469 107.567 3.10855C107.693 3.2424 107.787 3.40229 107.844 3.57683C107.901 3.75136 107.918 3.93626 107.895 4.11834V6.43587H107.548V5.87311C107.41 6.07801 107.222 6.244 107.001 6.35511C106.781 6.46622 106.536 6.5187 106.289 6.50749C105.46 6.50749 104.918 6.1238 104.918 5.39221C104.918 4.66063 105.552 4.33321 106.248 4.33321H107.532L107.568 4.15415ZM106.325 4.60436C105.772 4.60436 105.302 4.81411 105.302 5.36663C105.302 5.91916 105.67 6.18007 106.361 6.18007C106.969 6.18007 107.568 5.82195 107.568 5.26431V4.60436H106.325Z" fill="black"/>
<path d="M112.469 2.79841V3.09514H111.65C111.776 3.20643 111.876 3.34369 111.943 3.49741C112.01 3.65113 112.043 3.81761 112.039 3.98531C112.04 4.1604 112.005 4.33383 111.936 4.4947C111.867 4.65556 111.765 4.80038 111.638 4.92003C111.51 5.03969 111.359 5.13159 111.193 5.18996C111.028 5.24833 110.853 5.2719 110.678 5.25919C110.427 5.26762 110.178 5.20937 109.957 5.09036C109.843 5.09425 109.736 5.14147 109.656 5.22233C109.576 5.30319 109.53 5.41156 109.527 5.52522C109.527 5.80148 109.722 5.93449 110.039 5.96519L110.98 6.05216C112.034 6.14936 112.515 6.47167 112.515 7.15721C112.515 7.96041 111.707 8.42597 110.617 8.42597C109.527 8.42597 108.801 7.98599 108.801 7.22883C108.801 6.67631 109.195 6.37447 109.747 6.20564C109.596 6.17793 109.459 6.09757 109.36 5.97871C109.262 5.85986 109.209 5.71013 109.21 5.55591C109.213 5.40776 109.264 5.26464 109.357 5.14893C109.449 5.03323 109.578 4.95146 109.722 4.91642C109.586 4.80146 109.478 4.65787 109.404 4.49598C109.331 4.33409 109.294 4.15794 109.297 3.9802C109.299 3.80366 109.338 3.62946 109.41 3.4684C109.483 3.30735 109.587 3.16286 109.718 3.04391C109.848 2.92495 110.002 2.83406 110.169 2.77687C110.336 2.71968 110.513 2.69741 110.689 2.71144C110.863 2.71031 111.035 2.73797 111.2 2.79329L112.469 2.79841ZM109.159 7.2186C109.159 7.80182 109.671 8.11901 110.622 8.11901C111.574 8.11901 112.157 7.79159 112.157 7.15721C112.157 6.64561 111.881 6.43586 110.939 6.36423L110.172 6.31308C109.584 6.42563 109.149 6.70189 109.149 7.2186H109.159ZM111.707 3.98531C111.707 3.71395 111.599 3.45369 111.407 3.26181C111.215 3.06992 110.955 2.96212 110.684 2.96212C110.412 2.96212 110.152 3.06992 109.96 3.26181C109.768 3.45369 109.66 3.71395 109.66 3.98531C109.66 4.25668 109.768 4.51693 109.96 4.70882C110.152 4.9007 110.412 5.0085 110.684 5.0085C110.955 5.0085 111.215 4.9007 111.407 4.70882C111.599 4.51693 111.707 4.25668 111.707 3.98531Z" fill="black"/>
<path d="M114.976 6.19545C115.218 6.20813 115.46 6.16328 115.681 6.06457C115.902 5.96587 116.097 5.81611 116.25 5.62758L116.48 5.83222C116.299 6.05393 116.069 6.23071 115.808 6.34875C115.547 6.46678 115.262 6.52288 114.976 6.51264C114.722 6.52345 114.469 6.48153 114.232 6.38953C113.996 6.29753 113.78 6.15743 113.601 5.97811C113.421 5.79878 113.28 5.58411 113.188 5.34767C113.095 5.11122 113.052 4.85813 113.062 4.60439C113.056 4.3588 113.099 4.11444 113.188 3.88547C113.277 3.65649 113.411 3.44744 113.581 3.27043C113.751 3.09342 113.955 2.95197 114.18 2.85427C114.406 2.75657 114.648 2.70456 114.894 2.70125C115.145 2.70055 115.393 2.75273 115.622 2.85437C115.852 2.95601 116.057 3.10484 116.225 3.29116C116.393 3.47747 116.52 3.6971 116.597 3.93571C116.675 4.17432 116.701 4.42657 116.674 4.67601H113.421C113.415 4.87775 113.451 5.07853 113.526 5.26572C113.602 5.45291 113.715 5.62247 113.859 5.76373C114.003 5.905 114.175 6.01491 114.364 6.08657C114.552 6.15822 114.754 6.19007 114.955 6.1801L114.976 6.19545ZM116.306 4.38952C116.308 4.20401 116.273 4.02 116.201 3.84869C116.13 3.67739 116.025 3.52238 115.892 3.39313C115.759 3.26388 115.601 3.16309 115.427 3.09691C115.254 3.03073 115.069 3.00055 114.884 3.00821C114.508 3.00383 114.146 3.14543 113.873 3.40314C113.6 3.66085 113.438 4.01451 113.421 4.38952H116.306Z" fill="black"/>
<path d="M117.539 5.59688L117.846 5.46386C117.937 5.69204 118.098 5.88561 118.305 6.01698C118.513 6.14835 118.757 6.21081 119.002 6.19545C119.555 6.19545 119.913 5.91918 119.913 5.49968C119.913 4.98808 119.565 4.87553 118.889 4.67089C118.214 4.46625 117.764 4.27696 117.764 3.6477C117.773 3.51553 117.81 3.38663 117.87 3.26869C117.93 3.15075 118.014 3.04617 118.116 2.9612C118.217 2.87622 118.335 2.81259 118.462 2.77408C118.589 2.73557 118.722 2.72298 118.854 2.73706C119.092 2.72831 119.329 2.78886 119.534 2.91142C119.739 3.03397 119.904 3.21328 120.01 3.42771L119.744 3.58631C119.658 3.42444 119.53 3.28871 119.373 3.19331C119.216 3.09791 119.037 3.04634 118.854 3.04401C118.388 3.04401 118.096 3.28446 118.096 3.63235C118.096 3.98023 118.316 4.18487 119.033 4.39974C119.749 4.61461 120.245 4.8346 120.245 5.50991C120.245 6.09313 119.8 6.5331 118.987 6.5331C118.68 6.54521 118.376 6.46489 118.115 6.30253C117.854 6.14018 117.648 5.90327 117.523 5.62246" fill="black"/>
<path d="M54.0856 11.4854H54.326L60.5368 25.1859H57.6002L56.9607 23.6511H51.4508L50.8113 25.1859H48.1152L54.0856 11.4854ZM55.9631 21.3131L54.986 18.9547C54.5869 17.998 54.1674 16.5195 54.1674 16.5195C53.9439 17.3451 53.6757 18.158 53.3642 18.9547L52.3871 21.3131H55.9631Z" fill="black"/>
<path d="M61.5139 20.2746V11.5775H64.3123V20.1109C64.3123 22.0908 65.1718 22.8479 67.0289 22.8479C68.886 22.8479 69.7046 22.0908 69.7046 20.1109V11.6031H72.503V20.3002C72.503 23.733 70.1241 25.3906 67.0289 25.3906C63.9338 25.3906 61.5139 23.733 61.5139 20.3002" fill="black"/>
<path d="M79.2971 11.6031H84.5512C87.1092 11.6031 88.5059 13.2044 88.5059 15.1177C88.5176 15.69 88.3339 16.2492 87.9852 16.703C87.6364 17.1569 87.1434 17.4783 86.5874 17.6143C88.4445 18.0543 89.3449 19.2924 89.3449 20.9909C89.3449 23.4107 87.6259 25.186 84.7917 25.186H79.2971V11.6031ZM84.2494 16.6167C85.1498 16.6167 85.7484 16.1051 85.7484 15.3377C85.7586 15.1606 85.7299 14.9834 85.6642 14.8186C85.5985 14.6538 85.4974 14.5055 85.3682 14.384C85.2389 14.2625 85.0845 14.1709 84.916 14.1156C84.7474 14.0602 84.5688 14.0426 84.3926 14.0639H82.0956V16.6218L84.2494 16.6167ZM84.6689 22.7559C84.9185 22.7711 85.1685 22.7328 85.4021 22.6435C85.6357 22.5543 85.8475 22.4161 86.0233 22.2383C86.1992 22.0606 86.335 21.8472 86.4217 21.6127C86.5084 21.3781 86.5439 21.1277 86.526 20.8783C86.526 19.7784 85.7893 19.0212 84.5103 19.0212H82.0956V22.7559H84.6689Z" fill="black"/>
<path d="M90.9974 18.4175C90.9974 16.5532 91.738 14.7653 93.0562 13.447C94.3745 12.1288 96.1624 11.3882 98.0267 11.3882C99.891 11.3882 101.679 12.1288 102.997 13.447C104.315 14.7653 105.056 16.5532 105.056 18.4175C105.056 20.2818 104.315 22.0697 102.997 23.388C101.679 24.7063 99.891 25.4468 98.0267 25.4468C96.1624 25.4468 94.3745 24.7063 93.0562 23.388C91.738 22.0697 90.9974 20.2818 90.9974 18.4175ZM102.181 18.4175C102.181 15.8595 100.503 13.941 98.0267 13.941C95.5506 13.941 93.8726 15.8595 93.8726 18.4175C93.8726 20.9755 95.5506 22.8889 98.0267 22.8889C100.503 22.8889 102.181 20.955 102.181 18.4175Z" fill="black"/>
<path d="M107.373 20.2746V11.5775H110.172V20.1109C110.172 22.0908 111.031 22.8479 112.888 22.8479C114.746 22.8479 115.564 22.0908 115.564 20.1109V11.6031H118.363V20.3002C118.363 23.733 115.984 25.3906 112.888 25.3906C109.793 25.3906 107.373 23.733 107.373 20.3002" fill="black"/>
<path d="M124.236 14.0587H120.358V11.6031H130.907V14.0587H127.029V25.186H124.236V14.0587Z" fill="black"/>
<path d="M49.1129 30.4554H53.2876C57.4622 30.4554 60.4499 33.2333 60.4499 37.2494C60.4499 41.2654 57.4929 44.0383 53.2876 44.0383H49.1129V30.4554ZM53.1494 41.5826C56.1627 41.5826 57.5389 39.7869 57.5389 37.2494C57.5389 34.7119 56.1627 32.9162 53.1494 32.9162H51.9063V41.5826H53.1494Z" fill="black"/>
<path d="M62.7367 39.1269V30.4298H65.53V38.9683C65.53 40.9431 66.3895 41.7002 68.2466 41.7002C70.1037 41.7002 70.9222 40.9431 70.9222 38.9683V30.4554H73.7207V39.1525C73.7207 42.5853 71.3417 44.2685 68.2466 44.2685C65.1514 44.2685 62.7367 42.6109 62.7367 39.1525" fill="black"/>
<path d="M80.4892 30.3172H80.7092L87.4008 37.6689L93.9953 30.3172H94.2307V44.0383H91.5345V38.9223C91.5345 38.0014 91.6369 36.5434 91.6369 36.5434C91.6369 36.5434 90.8183 37.7405 90.1788 38.4619L87.4827 41.5007H87.2218L84.5257 38.4874C83.8862 37.7661 83.0676 36.5689 83.0676 36.5689C83.0676 36.5689 83.17 38.027 83.17 38.9479V44.0638H80.4892V30.3172Z" fill="black"/>
<path d="M96.6095 37.2494C96.5964 35.8551 96.9978 34.4884 97.7629 33.3228C98.5281 32.1571 99.6223 31.2452 100.907 30.7027C102.191 30.1602 103.608 30.0117 104.977 30.276C106.346 30.5402 107.606 31.2054 108.596 32.187C109.586 33.1686 110.262 34.4224 110.539 35.789C110.815 37.1557 110.679 38.5736 110.148 39.8628C109.616 41.152 108.714 42.2542 107.555 43.0295C106.396 43.8049 105.033 44.2183 103.639 44.2173C102.715 44.2373 101.798 44.0712 100.94 43.7289C100.082 43.3866 99.3017 42.8751 98.6457 42.2248C97.9898 41.5746 97.4715 40.799 97.1216 39.9442C96.7718 39.0894 96.5976 38.1729 96.6095 37.2494ZM107.793 37.2494C107.793 34.6914 106.115 32.7729 103.639 32.7729C101.163 32.7729 99.4847 34.7119 99.4847 37.2494C99.4847 39.7869 101.163 41.7207 103.639 41.7207C106.115 41.7207 107.793 39.7869 107.793 37.2494Z" fill="black"/>
<path d="M117.084 37.7303C116.506 37.1438 115.967 36.5219 115.467 35.8681C115.576 36.6911 115.643 37.5193 115.667 38.3493V44.0383H113.062V30.3377H113.344L120.194 36.7685C120.755 37.3536 121.278 37.9739 121.76 38.6256C121.76 38.6256 121.581 37.0908 121.581 36.1495V30.4554H124.2V44.1611H123.919L117.084 37.7303Z" fill="black"/>
<path d="M127.049 30.4554H131.224C135.399 30.4554 138.386 33.2333 138.386 37.2494C138.386 41.2654 135.429 44.0383 131.224 44.0383H127.049V30.4554ZM131.086 41.5826C134.099 41.5826 135.481 39.7869 135.481 37.2494C135.481 34.7119 134.099 32.9162 131.086 32.9162H129.848V41.5826H131.086Z" fill="black"/>
<path d="M140.73 30.4554H149.718V32.9162H143.528V37.2289H148.982V39.6232H143.528V41.5826H150V44.0383H140.73V30.4554Z" fill="black"/>
</g>
<defs>
<clipPath id="clip0">
<rect width="150" height="44.381" fill="white"/>
</clipPath>
</defs>
</svg>
