<svg width="150" height="112" viewBox="0 0 150 112" fill="none" xmlns="http://www.w3.org/2000/svg">
<g clip-path="url(#clip0)">
<path d="M45.0591 25.9977C45.2404 25.0961 45.335 24.2418 45.5873 23.4272C46.1234 21.6277 47.2256 20.0506 48.7291 18.9315C50.2326 17.8124 52.0568 17.2114 53.929 17.2184C56.1287 17.2184 58.3363 17.4319 60.5282 17.6534C62.771 17.9997 65.0402 18.1453 67.3087 18.0884C68.2228 18.024 69.1243 17.8378 69.9894 17.5347C70.9322 17.225 71.7518 16.6214 72.329 15.812C72.9061 15.0026 73.2107 14.0295 73.1983 13.0343C73.2219 12.5733 73.2219 12.1113 73.1983 11.6502C73.1983 10.6536 73.3166 10.5508 74.2391 11.0096C76.2985 12.0075 77.9324 13.714 78.8436 15.8184C79.7398 17.7649 79.9591 19.9567 79.4664 22.0431C79.1592 23.4358 78.4127 24.6922 77.3376 25.626L76.8567 26.0373C77.8974 26.0373 78.7489 26.0373 79.5926 26.0373C80.5001 26.0408 81.3971 26.2323 82.2274 26.5998C83.0577 26.9673 83.8034 27.5028 84.4178 28.1728C85.018 28.8151 85.478 29.576 85.7684 30.4068C86.0587 31.2376 86.1731 32.1201 86.104 32.9978C86.035 33.8754 85.7842 34.729 85.3676 35.5039C84.951 36.2788 84.3777 36.9579 83.6846 37.4979C81.6417 39.0284 79.3233 40.1483 76.8567 40.7961C73.7786 41.718 70.603 42.2728 67.3955 42.4491C64.6359 42.5915 61.8764 42.6943 59.1169 42.6073C54.5516 42.5376 50.0268 41.7366 45.7135 40.2345C44.2531 39.7548 42.8833 39.033 41.6609 38.099C40.5488 37.3089 39.7033 36.1975 39.237 34.9129C38.7708 33.6284 38.7059 32.2318 39.0512 30.9094C39.3043 29.7236 39.9024 28.6397 40.7697 27.795C41.637 26.9503 42.7347 26.3826 43.9237 26.1638C44.1315 26.1121 44.3421 26.0725 44.5544 26.0452L45.0591 25.9977Z" fill="#FCB3B1"/>
<path d="M62.2864 64.8565C59.6199 64.8794 56.9642 64.5144 54.402 63.7729C53.1592 63.4436 52.0289 62.7818 51.1318 61.8583C50.2348 60.9347 49.6046 59.784 49.3087 58.5291C48.0946 54.2422 46.8094 49.987 45.5479 45.716C45.4797 45.512 45.427 45.3031 45.3902 45.0911C45.3035 44.3556 45.7056 43.9996 46.4467 44.1657C47.4559 44.3951 48.4651 44.664 49.4822 44.8855C53.7731 45.7838 58.1476 46.2186 62.5308 46.1826C67.741 46.2117 72.9337 45.5765 77.9842 44.2923C79.088 44.0076 79.5611 44.4267 79.2063 45.5182C78.2917 48.682 77.3613 51.7587 76.4389 54.8829C76.0446 56.2037 75.6504 57.5246 75.2641 58.8375C74.9829 59.946 74.4239 60.9639 73.64 61.7945C72.8562 62.6251 71.8737 63.2408 70.7858 63.5831C68.0438 64.4823 65.1706 64.9128 62.2864 64.8565Z" fill="#FCB3B1"/>
<path d="M62.4048 10.7329C61.3481 10.7236 60.3177 10.4006 59.4436 9.80487C58.5694 9.20909 57.8906 8.36711 57.4927 7.385C57.0947 6.4029 56.9955 5.32461 57.2073 4.28599C57.4192 3.24738 57.9328 2.2949 58.6833 1.54858C59.4339 0.802248 60.3878 0.295457 61.425 0.092055C62.4621 -0.111347 63.5361 -0.0022595 64.5116 0.405573C65.4871 0.813405 66.3204 1.50174 66.9066 2.38384C67.4927 3.26595 67.8056 4.30236 67.8056 5.3625C67.8046 6.07147 67.6639 6.77324 67.3915 7.42744C67.1191 8.08165 66.7205 8.67538 66.2186 9.17449C65.7167 9.67359 65.1213 10.0682 64.4668 10.3357C63.8123 10.6031 63.1115 10.7381 62.4048 10.7329V10.7329Z" fill="#F88379"/>
<path d="M38.1686 68.0201C38.3474 67.983 38.5326 67.9926 38.7066 68.048C38.8806 68.1034 39.0374 68.2027 39.1621 68.3365C39.3997 68.5977 39.5294 68.9399 39.5247 69.2935C39.5236 69.6604 39.3954 70.0155 39.1621 70.298C39.0417 70.4515 38.8917 70.5789 38.721 70.6727C38.5502 70.7665 38.3623 70.8247 38.1686 70.8437C36.8099 70.9609 35.4593 71.159 34.1239 71.4369C32.8257 71.7111 31.5116 71.9985 30.1818 72.299C28.7941 72.6629 27.3986 73.09 26.0109 73.4854C24.6233 73.8809 23.2199 74.395 21.8322 74.9408C22.5524 76.8576 22.8457 78.9092 22.6916 80.9518C22.6008 82.0071 22.3017 83.0338 21.8118 83.9721C21.3218 84.9104 20.6507 85.7415 19.8375 86.4172C19.028 87.1398 18.1266 87.7515 17.1568 88.2363C16.1074 88.7819 14.9953 89.1963 13.8454 89.4702C12.7299 89.7391 11.5724 89.7848 10.4393 89.6046C9.33181 89.4248 8.32053 88.8658 7.57729 88.0228C6.97799 87.4567 6.54003 86.7405 6.30859 85.948C6.07714 85.1555 6.06058 84.3155 6.2606 83.5144C6.61983 81.9128 7.42345 80.4458 8.57861 79.283C9.89476 77.9828 11.3705 76.8559 12.9702 75.9294C14.5929 74.9837 16.2759 74.1462 18.0083 73.4222C17.827 73.1216 17.6614 72.8685 17.5116 72.6312C17.3618 72.394 17.1647 72.1567 16.9203 71.8403C15.5335 69.9024 13.8828 68.1692 12.0162 66.6913C10.14 65.2036 8.37937 63.5748 6.74943 61.8192C5.18346 60.1106 3.84266 58.2073 2.75995 56.1561C1.63566 54.0431 0.838113 51.7709 0.394637 49.4174C-0.0623309 47.1188 -0.078386 44.7539 0.347331 42.4493C0.779351 40.1224 1.87485 37.9712 3.50108 36.2563C4.92851 34.6959 6.68089 33.47 8.6338 32.6655C10.5641 31.8401 12.6843 31.5664 14.7599 31.8745C16.1946 32.0538 17.5903 32.468 18.8914 33.1005C20.1836 33.7364 21.4002 34.5164 22.5182 35.4258C23.6439 36.3414 24.6789 37.3638 25.6088 38.4788C26.5444 39.6019 27.4065 40.7382 28.1949 41.8877C28.3073 42.0324 28.3831 42.2021 28.4161 42.3825C28.449 42.5629 28.4381 42.7486 28.3841 42.9238C28.2744 43.2567 28.0473 43.5379 27.7455 43.7148C27.4313 43.8987 27.0664 43.9764 26.7048 43.9362C26.5105 43.9232 26.3222 43.8631 26.1561 43.7612C25.9899 43.6593 25.8509 43.5185 25.7507 43.3509C24.7869 41.9454 23.7083 40.6226 22.526 39.3963C21.3302 38.1229 19.9541 37.0329 18.4419 36.1614C17.0101 35.3136 15.4177 34.7749 13.7665 34.5795C12.0306 34.4193 10.2877 34.8005 8.77572 35.671C6.65393 36.6928 4.94733 38.4159 3.9426 40.551C3.00569 42.7232 2.66016 45.1059 2.94129 47.4559C3.19074 50.148 4.01061 52.7556 5.34602 55.1042C6.7115 57.4325 8.4088 59.5482 10.3841 61.3842C12.0766 62.966 13.8007 64.5295 15.5563 66.0744C17.3027 67.6138 18.8048 69.4115 20.0109 71.4053C20.2685 71.7078 20.481 72.0461 20.6417 72.4098C20.8039 72.294 20.9897 72.2156 21.1857 72.1804C21.3817 72.1452 21.5675 72.0669 21.7297 71.951C24.4577 70.9861 27.1673 70.1662 29.8585 69.4912C32.5928 68.8159 35.369 68.3244 38.1686 68.0201ZM20.0346 79.8841C19.98 78.5454 19.7139 77.2239 19.2461 75.969C18.2764 76.3961 17.3381 76.8469 16.4314 77.3373C15.5247 77.8277 14.6496 78.3338 13.7981 78.9191C12.9465 79.5044 12.0398 80.1214 11.0779 80.8807C10.1704 81.548 9.50131 82.491 9.16993 83.5698C8.80725 84.9065 9.07532 85.8319 9.95837 86.346C10.9264 86.8662 12.0606 86.9799 13.1121 86.6624C13.9394 86.4759 14.7473 86.211 15.5247 85.8714C16.332 85.5052 17.094 85.0461 17.7954 84.5031C18.4738 83.9747 19.0305 83.3056 19.4275 82.5416C19.8393 81.7182 20.0399 80.8048 20.0109 79.8841H20.0346Z" fill="white"/>
<path d="M59.5905 68.6531C59.6911 68.4854 59.8302 68.3441 59.9961 68.241C60.162 68.1378 60.3499 68.0758 60.5445 68.0599C60.9069 68.0227 61.2717 68.1031 61.5852 68.2893C61.889 68.4638 62.1167 68.7459 62.2238 69.0802C62.2816 69.2558 62.2953 69.4429 62.2636 69.625C62.232 69.8071 62.156 69.9786 62.0425 70.1242C60.9848 71.4877 59.6131 72.5733 58.0451 73.288C56.5537 74.0954 55.0071 74.7958 53.417 75.3839C51.784 75.9959 50.0709 76.3663 48.3316 76.4833C48.3362 77.3672 48.2756 78.2502 48.1502 79.1251C48.032 79.9793 47.9058 80.7939 47.7876 81.5849C47.6693 82.3758 47.3776 83.3486 47.1095 84.3136C46.8381 85.2744 46.4404 86.1947 45.9269 87.0502C45.4377 87.8669 44.8261 88.6032 44.1134 89.2332C43.4033 89.8492 42.5392 90.2594 41.6141 90.4196C40.5783 90.6346 39.5062 90.5982 38.4872 90.3134C37.4682 90.0286 36.5318 89.5037 35.756 88.7823C34.2079 87.3009 33.1743 85.3603 32.8073 83.2458C32.5048 81.3026 32.3992 79.3337 32.4919 77.3692C32.5804 75.3906 33.0601 73.4495 33.9032 71.6586C34.392 70.6225 35.0228 69.4599 35.8112 68.1469C36.5154 66.9295 37.5166 65.9116 38.7205 65.1888C38.9849 64.8297 39.3602 64.5684 39.7879 64.4453C40.2157 64.3223 40.672 64.3446 41.0859 64.5086C42.1027 64.8902 43.0291 65.4801 43.806 66.2408C44.6784 67.0562 45.4705 67.9541 46.1713 68.922C46.7206 69.6114 47.1742 70.3723 47.5195 71.1841C47.7052 71.56 47.8404 71.9589 47.9216 72.3705C48.0162 72.7976 48.1187 73.2484 48.2449 73.7388C49.3981 73.6643 50.5401 73.4654 51.6509 73.1456C52.7813 72.8293 53.8879 72.4329 54.9623 71.9592C55.9335 71.5227 56.8603 70.9929 57.7297 70.3773C58.4434 69.9131 59.0726 69.33 59.5905 68.6531ZM41.346 87.6355C41.9606 87.3984 42.5038 87.0061 42.9229 86.4965C43.353 85.9723 43.7061 85.389 43.9715 84.7644C44.2409 84.1292 44.4674 83.4765 44.6496 82.8108C44.8309 82.1385 44.9807 81.5058 45.1069 80.8967C45.2251 80.1691 45.3198 79.4335 45.3749 78.7059C45.4301 77.9782 45.4696 77.2505 45.4696 76.5229L44.5155 76.341C44.1887 76.2825 43.869 76.1897 43.5615 76.0641C42.1992 75.6229 40.9466 74.8948 39.8874 73.9286C38.7996 72.983 38.0242 71.7279 37.664 70.3299C37.3565 71.0022 37.0727 71.6191 36.7968 72.1965C36.5208 72.7739 36.3316 73.2168 36.2054 73.5173C35.7174 74.6897 35.427 75.9352 35.346 77.2031C35.2508 78.4622 35.2666 79.7274 35.3933 80.9837C35.4671 81.8158 35.6175 82.6393 35.8427 83.4435C36.0706 84.317 36.4381 85.1477 36.9308 85.9033C37.3919 86.6055 38.0172 87.1838 38.7521 87.588C39.1592 87.7738 39.601 87.8705 40.0482 87.8719C40.4954 87.8733 40.9378 87.7792 41.346 87.5959V87.6355ZM45.2882 73.3987C45.1604 72.7807 44.9454 72.1841 44.6496 71.627C44.3604 71.0743 44.0283 70.5454 43.6562 70.0451C43.3482 69.6023 42.9997 69.1893 42.6154 68.8113C42.2618 68.4381 41.8455 68.1302 41.3855 67.9017C40.9912 67.7198 40.7074 67.7198 40.5261 67.9017C40.3447 68.0836 40.3447 68.6294 40.5261 69.5389C40.7073 70.6488 41.288 71.6534 42.1581 72.3626C43.0599 73.0504 44.1254 73.4894 45.2488 73.636L45.2882 73.3987Z" fill="white"/>
<path d="M110.523 68.558C110.627 68.3888 110.765 68.2444 110.93 68.1351C111.095 68.0258 111.282 67.9541 111.477 67.9252C111.835 67.8563 112.205 67.9211 112.518 68.1072C112.82 68.2845 113.046 68.5656 113.157 68.8981C113.214 69.0815 113.227 69.2759 113.196 69.4655C113.164 69.6551 113.089 69.8346 112.975 69.9896C111.35 72.3655 109.592 74.6471 107.709 76.8232C105.786 79.0542 103.659 81.0986 101.354 82.9292C99.0884 84.7261 96.5831 86.1957 93.9111 87.2952C91.2307 88.3923 88.3618 88.9512 85.4669 88.9403C82.8436 88.9581 80.2407 88.4777 77.7955 87.5245C75.4405 86.6086 73.2491 85.3158 71.3066 83.6964C69.3484 82.0716 67.661 80.1438 66.3079 77.9859C64.9275 75.7741 63.8657 73.3776 63.1542 70.8675C62.422 68.292 62.0115 65.6352 61.9321 62.9582C61.8375 60.2721 62.0492 57.584 62.5629 54.946C63.0712 52.3198 63.8945 49.765 65.0149 47.3373C66.1371 44.903 67.5883 42.6354 69.3276 40.5985C71.1013 38.5219 73.1647 36.7131 75.4538 35.2281C77.6633 33.7596 80.1298 32.7237 82.7232 32.1751C85.2139 31.6578 87.7897 31.72 90.2528 32.357C92.9344 33.0996 95.346 34.6017 97.1989 36.6834C97.338 36.8258 97.4429 36.9981 97.5057 37.1872C97.5686 37.3763 97.5877 37.5773 97.5616 37.7749C97.5154 38.1194 97.3575 38.4391 97.1122 38.6845C96.8659 38.9298 96.5485 39.0904 96.2054 39.1432C96.0126 39.1674 95.8168 39.1373 95.64 39.0563C95.4631 38.9753 95.3123 38.8465 95.2041 38.6845C93.4784 36.7148 91.1434 35.3834 88.5734 34.9038C86.175 34.5145 83.7188 34.7016 81.4065 35.4496C78.975 36.2528 76.7229 37.5235 74.7757 39.1907C72.8049 40.8186 71.0904 42.7359 69.6903 44.8775C67.2209 48.8219 65.6089 53.2446 64.9597 57.8567C64.2306 62.4373 64.6951 67.1292 66.3079 71.4765C67.1456 73.7579 68.3088 75.9052 69.7613 77.8514C71.1747 79.7561 72.8743 81.4291 74.7994 82.8106C76.6983 84.1759 78.8389 85.1664 81.1069 85.7291C83.488 86.3096 85.9675 86.3555 88.3684 85.8636C90.7388 85.4543 93.0249 84.6524 95.1332 83.4908C97.2267 82.3313 99.2043 80.9726 101.039 79.4333C102.897 77.8773 104.612 76.1567 106.163 74.2922C107.74 72.4151 109.194 70.5037 110.523 68.558Z" fill="white"/>
<path d="M147.383 68.6529C147.464 68.471 147.59 68.3127 147.748 68.1924C147.907 68.0721 148.093 67.9939 148.29 67.9648C148.639 67.935 148.989 68.0152 149.291 68.1942C149.589 68.3758 149.814 68.6553 149.929 68.9851C150.041 69.3633 150.007 69.7695 149.835 70.124C148.258 72.982 146.623 75.7608 144.931 78.4605C143.238 81.1602 141.514 83.8757 139.759 86.6071C138.492 88.4895 137.191 90.335 135.856 92.1436C134.521 93.9522 133.128 95.7107 131.677 97.4191C130.589 98.7004 129.409 99.9923 128.137 101.295C126.949 102.543 125.529 103.548 123.958 104.253C122.208 105.099 120.805 105.273 119.693 104.751C118.576 104.209 117.667 103.315 117.107 102.204C116.434 100.918 115.961 99.5365 115.703 98.1072C115.416 96.7095 115.232 95.2926 115.152 93.8678C114.97 91.5662 114.868 89.2251 114.836 86.8602C114.805 84.4953 114.734 82.1146 114.608 79.8446V77.2108C114.608 76.238 114.608 75.273 114.521 74.3002C114.457 73.3336 114.318 72.3735 114.103 71.4291C113.913 70.5487 113.588 69.703 113.141 68.9218C112.77 68.2574 112.353 68.1942 111.895 68.7399C111.365 69.4124 110.944 70.1653 110.65 70.9703C110.287 71.9078 109.981 72.8666 109.735 73.8414C109.491 74.8143 109.333 75.4233 109.27 75.6606C108.787 77.7478 108.418 79.8602 108.166 81.988C107.923 84.0883 107.801 86.2011 107.803 88.3155C107.822 88.5126 107.791 88.7112 107.714 88.8934C107.637 89.0757 107.516 89.2358 107.362 89.3595C107.1 89.57 106.775 89.6848 106.439 89.6848C106.104 89.6848 105.779 89.57 105.517 89.3595C105.363 89.2358 105.242 89.0757 105.165 88.8934C105.088 88.7112 105.057 88.5126 105.075 88.3155V33.2192C105.067 33.0301 105.103 32.8418 105.18 32.6689C105.256 32.496 105.372 32.3433 105.517 32.2226C105.768 31.9891 106.097 31.8594 106.439 31.8594C106.781 31.8594 107.111 31.9891 107.362 32.2226C107.507 32.3433 107.623 32.496 107.699 32.6689C107.776 32.8418 107.811 33.0301 107.803 33.2192L107.89 69.602C108.375 68.3286 109.134 67.1781 110.113 66.2327C110.529 65.8449 111.044 65.5799 111.6 65.4668C112.157 65.3538 112.734 65.3971 113.267 65.592C113.879 65.7722 114.439 66.0989 114.898 66.5439C115.356 66.9889 115.701 67.5389 115.901 68.1467C116.335 69.3743 116.655 70.64 116.855 71.9274C117.156 74.0721 117.337 76.2321 117.399 78.3972C117.462 80.5802 117.525 82.7711 117.58 84.954V87.2794C117.58 88.4025 117.596 89.6759 117.627 91.0996C117.659 92.5461 117.764 93.9902 117.943 95.426C118.085 96.7395 118.349 98.0369 118.731 99.3015C118.987 100.238 119.469 101.096 120.134 101.801C120.707 102.328 121.48 102.36 122.452 101.896C124.03 101.041 125.468 99.9506 126.718 98.6609C127.995 97.3558 129.17 96.035 130.258 94.7062C131.772 92.8871 133.196 91.0205 134.531 89.1064C135.856 87.1924 137.165 85.2625 138.474 83.3247C141.748 78.4578 144.718 73.5672 147.383 68.6529Z" fill="white"/>
</g>
<defs>
<clipPath id="clip0">
<rect width="150" height="111.316" fill="white"/>
</clipPath>
</defs>
</svg>
